<svg width="56" height="56" viewBox="0 0 56 56" fill="none" xmlns="http://www.w3.org/2000/svg">
<path fill-rule="evenodd" clip-rule="evenodd" d="M28.6797 12.6937C26.1901 12.5017 23.6107 13.0452 21.3984 14.1742C18.7783 15.5116 16.3536 17.5786 14.8594 20.1976C13.3598 22.8262 12.6379 26.0211 12.9844 29.0531C13.3987 32.6779 14.9068 36.4882 17.6719 39.0492C20.6459 41.8038 24.9263 43.5986 29.0469 43.3148C33.2291 43.0268 37.2375 40.5975 39.8672 37.4593C42.0966 34.7987 43.0803 31.1804 43.1016 27.8226C43.1154 24.024 42.2511 19.669 39.4492 16.752C36.6599 13.8482 32.3724 12.982 28.6797 12.6976V12.6937ZM28.5234 14.6898C32.0075 14.9582 35.8068 15.8477 38.0039 18.1351C40.2408 20.4637 41.1142 24.3363 41.1015 27.8109C41.0827 30.7775 40.1685 33.9872 38.3359 36.1742C36.032 38.9238 32.3876 41.0789 28.9062 41.3187C25.476 41.5549 21.61 39.9729 19.0312 37.5843C16.7363 35.4587 15.3376 32.0539 14.9687 28.8265C14.6768 26.2725 15.3073 23.4409 16.5937 21.1859C17.8467 18.9897 19.9868 17.1386 22.3047 15.9554C24.1828 14.997 26.4342 14.5288 28.5234 14.6898Z" fill="#1188EE"/>
<path fill-rule="evenodd" clip-rule="evenodd" d="M29.9062 0.0645251C22.4535 -0.448475 14.5809 2.83191 9.15624 7.85371C4.15812 12.4807 1.3654 19.4696 0.60546 26.1154C-0.0228792 31.6102 1.29419 37.4668 4.02343 42.2482C6.73039 46.9902 11.1694 50.7803 15.9687 53.2287C19.9862 55.2781 24.7007 56.2673 29.2109 55.9201C36.0708 55.3921 43.924 53.7529 48.9141 48.5607C53.9401 43.3315 55.5723 35.347 55.5469 28.342C55.5097 22.1958 53.69 15.5691 49.668 10.7717C44.8608 5.03788 37.4705 0.589553 29.9062 0.0685534V0.0645251ZM29.7695 2.05683C36.6333 2.52963 43.6515 6.70773 48.1328 12.0529C51.758 16.3769 53.5121 22.5954 53.5469 28.3498C53.5711 35.0308 51.9334 42.5328 47.4726 47.174C43.0751 51.7498 35.706 53.4159 29.0547 53.9279C24.9445 54.2443 20.5622 53.3265 16.8789 51.4475C12.3818 49.1535 8.22715 45.5751 5.76171 41.2561C3.24575 36.8483 2.02008 31.3586 2.59374 26.342C3.3082 20.0938 5.98773 13.5143 10.5156 9.32246C15.545 4.66666 23.007 1.59123 29.7695 2.05683Z" fill="#1188EE"/>
<path fill-rule="evenodd" clip-rule="evenodd" d="M16.4648 3.68579L14.7383 4.69751L21.2383 15.8225L22.9648 14.8108L16.4648 3.68579Z" fill="#1188EE"/>
<path fill-rule="evenodd" clip-rule="evenodd" d="M40.7695 4.26392L33.8945 14.6389L35.5586 15.7444L42.4336 5.36938L40.7695 4.26392Z" fill="#1188EE"/>
<path fill-rule="evenodd" clip-rule="evenodd" d="M49.9609 13.3342L39.9609 19.3342L40.9922 21.0491L50.9922 15.0491L49.9609 13.3342Z" fill="#1188EE"/>
<path fill-rule="evenodd" clip-rule="evenodd" d="M41.3633 32.9553L40.3398 34.6741L52.0898 41.6741L53.1133 39.9553L41.3633 32.9553Z" fill="#1188EE"/>
<path fill-rule="evenodd" clip-rule="evenodd" d="M36.793 39.3538L34.9102 40.0295L39.4102 52.5295L41.293 51.8538L36.793 39.3538Z" fill="#1188EE"/>
<path fill-rule="evenodd" clip-rule="evenodd" d="M20.1133 40.0647L13.8633 50.8147L15.5898 51.8186L21.8398 41.0686L20.1133 40.0647Z" fill="#1188EE"/>
<path fill-rule="evenodd" clip-rule="evenodd" d="M15.4883 33.5686L4.36328 39.8186L5.33984 41.5647L16.4648 35.3147L15.4883 33.5686Z" fill="#1188EE"/>
<path fill-rule="evenodd" clip-rule="evenodd" d="M5.37891 13.8928L4.42578 15.6506L14.8008 21.2756L15.7539 19.5178L5.37891 13.8928Z" fill="#1188EE"/>
<path fill-rule="evenodd" clip-rule="evenodd" d="M6.9375 17.4359C6.82396 17.4317 6.71236 17.4664 6.62109 17.534L2.43359 20.534C2.32583 20.6117 2.25335 20.7291 2.2321 20.8602C2.21085 20.9913 2.24256 21.1255 2.32026 21.2333C2.39796 21.341 2.51528 21.4134 2.64642 21.4347C2.77756 21.4559 2.91177 21.4242 3.01953 21.3465L7.20703 18.3465C7.29344 18.2866 7.35874 18.2009 7.39363 18.1017C7.42853 18.0024 7.43124 17.8947 7.40138 17.7938C7.37153 17.6929 7.31063 17.6041 7.22734 17.5399C7.14406 17.4756 7.04263 17.4392 6.9375 17.4359Z" fill="#1188EE"/>
<path fill-rule="evenodd" clip-rule="evenodd" d="M7.6133 18.9983C7.48286 18.996 7.3567 19.0448 7.26174 19.1343L1.69924 24.2593C1.65075 24.3039 1.61153 24.3577 1.58382 24.4175C1.55611 24.4773 1.54044 24.5418 1.53772 24.6077C1.535 24.6735 1.54527 24.7392 1.56795 24.801C1.59064 24.8629 1.62528 24.9198 1.66992 24.9683C1.71455 25.0167 1.7683 25.056 1.82809 25.0837C1.88787 25.1114 1.95253 25.1269 2.01837 25.1296C2.08421 25.1323 2.14994 25.1221 2.2118 25.0994C2.27367 25.0767 2.33046 25.042 2.37892 24.9973L7.94142 19.8723C8.0174 19.8053 8.07123 19.717 8.09576 19.6187C8.12029 19.5203 8.11437 19.4167 8.07879 19.3218C8.04321 19.2269 7.97965 19.1451 7.89652 19.0872C7.8134 19.0292 7.71463 18.9988 7.6133 18.9983Z" fill="#1188EE"/>
<path fill-rule="evenodd" clip-rule="evenodd" d="M8.38668 21.1859C8.27491 21.1937 8.16899 21.2387 8.0859 21.3138L0.898402 27.6266C0.84615 27.6688 0.80295 27.7211 0.771382 27.7804C0.739814 27.8397 0.720526 27.9048 0.714671 27.9718C0.708815 28.0387 0.716512 28.1061 0.737301 28.17C0.75809 28.2339 0.791546 28.2929 0.835669 28.3436C0.879792 28.3943 0.933678 28.4356 0.994107 28.4649C1.05454 28.4943 1.12027 28.5113 1.18738 28.5147C1.25449 28.5182 1.3216 28.5081 1.3847 28.485C1.44781 28.4619 1.50561 28.4262 1.55465 28.3802L8.74606 22.068C8.82764 22.0001 8.8855 21.9078 8.91125 21.8048C8.93699 21.7018 8.9293 21.5933 8.88927 21.495C8.84924 21.3966 8.77897 21.3136 8.68861 21.2579C8.59826 21.2022 8.49251 21.1775 8.38668 21.1859Z" fill="#1188EE"/>
<path fill-rule="evenodd" clip-rule="evenodd" d="M8.8047 23.6233C8.67481 23.6199 8.54872 23.6671 8.45313 23.7551L1.39063 30.1301C1.29224 30.2192 1.23327 30.344 1.22669 30.4766C1.22011 30.6091 1.26646 30.7387 1.35554 30.8372C1.44463 30.9356 1.56915 30.9946 1.70173 31.0012C1.83431 31.0078 1.96408 30.9614 2.06251 30.8723L9.12501 24.4973C9.20053 24.4307 9.25418 24.343 9.27896 24.2454C9.30373 24.1478 9.29847 24.045 9.26385 23.9504C9.22924 23.8559 9.1669 23.7741 9.08497 23.7156C9.00305 23.657 8.90536 23.6254 8.8047 23.6233Z" fill="#1188EE"/>
<path fill-rule="evenodd" clip-rule="evenodd" d="M9.51562 26.0608C9.40434 26.0674 9.29847 26.1111 9.21484 26.1848L1.58984 32.7473C1.5386 32.7897 1.49633 32.8417 1.4655 32.9006C1.43467 32.9595 1.4159 33.0241 1.41029 33.0903C1.40468 33.1566 1.41234 33.2233 1.43282 33.2866C1.45331 33.3499 1.4862 33.4083 1.52959 33.4587C1.57297 33.5091 1.62596 33.5504 1.68547 33.5801C1.74499 33.6097 1.80982 33.6273 1.87617 33.6316C1.94253 33.6359 2.00907 33.6269 2.07192 33.6052C2.13477 33.5835 2.19265 33.5495 2.24218 33.5051L9.86718 26.9426C9.94802 26.8751 10.0055 26.7837 10.0313 26.6816C10.0571 26.5795 10.0501 26.4719 10.0111 26.374C9.97212 26.2761 9.90323 26.1929 9.81425 26.1365C9.72528 26.0801 9.62076 26.0543 9.51562 26.0608Z" fill="#1188EE"/>
<path fill-rule="evenodd" clip-rule="evenodd" d="M10.3906 28.8733C10.278 28.8791 10.1706 28.9228 10.0859 28.9973L2.39845 35.6223C2.29798 35.7093 2.2362 35.8327 2.22669 35.9653C2.21718 36.0979 2.26072 36.2286 2.34773 36.3291C2.43475 36.4296 2.55811 36.4914 2.69069 36.501C2.82327 36.5105 2.9542 36.4671 3.0547 36.3801L10.7422 29.7551C10.823 29.6876 10.8805 29.596 10.9063 29.4939C10.9322 29.3918 10.9251 29.2841 10.8861 29.1863C10.8471 29.0884 10.7782 29.0054 10.6893 28.949C10.6003 28.8926 10.4958 28.8668 10.3906 28.8733Z" fill="#1188EE"/>
<path fill-rule="evenodd" clip-rule="evenodd" d="M10.9609 31.9983C10.8485 32.0035 10.7412 32.0463 10.6562 32.1201L3.34373 38.2451C3.2932 38.2872 3.25145 38.339 3.22086 38.3972C3.19028 38.4554 3.17145 38.519 3.16547 38.5845C3.15948 38.6499 3.16646 38.7158 3.18598 38.7786C3.20551 38.8413 3.23722 38.8997 3.27928 38.9502C3.32135 39.0007 3.37296 39.0427 3.43116 39.0732C3.48936 39.1038 3.55302 39.1224 3.61849 39.1284C3.68396 39.1344 3.74997 39.1274 3.81275 39.1079C3.87552 39.0884 3.93383 39.0567 3.98435 39.0146L11.2969 32.8896C11.3796 32.8237 11.4393 32.7333 11.4674 32.6313C11.4955 32.5294 11.4905 32.421 11.4532 32.322C11.4158 32.223 11.3481 32.1384 11.2596 32.0803C11.1712 32.0223 11.0666 31.9931 10.9609 31.9983Z" fill="#1188EE"/>
</svg>
