<svg width="64" height="64" viewBox="0 0 64 64" fill="none" xmlns="http://www.w3.org/2000/svg">
<path fill-rule="evenodd" clip-rule="evenodd" d="M32.6797 16.6937C30.1901 16.5017 27.6107 17.0452 25.3984 18.1742C22.7783 19.5116 20.3536 21.5786 18.8594 24.1976C17.3598 26.8262 16.6379 30.0211 16.9844 33.0531C17.3987 36.6779 18.9068 40.4882 21.6719 43.0492C24.6459 45.8038 28.9263 47.5986 33.0469 47.3148C37.2291 47.0268 41.2375 44.5975 43.8672 41.4593C46.0966 38.7987 47.0803 35.1804 47.1016 31.8226C47.1154 28.024 46.2511 23.669 43.4492 20.752C40.6599 17.8482 36.3724 16.982 32.6797 16.6976V16.6937ZM32.5234 18.6898C36.0075 18.9582 39.8068 19.8477 42.0039 22.1351C44.2408 24.4637 45.1142 28.3363 45.1015 31.8109C45.0827 34.7775 44.1685 37.9872 42.3359 40.1742C40.032 42.9238 36.3876 45.0789 32.9062 45.3187C29.476 45.5549 25.61 43.9729 23.0312 41.5843C20.7363 39.4587 19.3376 36.0539 18.9687 32.8265C18.6768 30.2725 19.3073 27.4409 20.5937 25.1859C21.8467 22.9897 23.9868 21.1386 26.3047 19.9554C28.1828 18.997 30.4342 18.5288 32.5234 18.6898Z" fill="#1188EE"/>
<path fill-rule="evenodd" clip-rule="evenodd" d="M33.9062 4.06453C26.4535 3.55153 18.5809 6.83191 13.1562 11.8537C8.15812 16.4807 5.3654 23.4696 4.60546 30.1154C3.97712 35.6102 5.29419 41.4668 8.02343 46.2482C10.7304 50.9902 15.1694 54.7803 19.9687 57.2287C23.9862 59.2781 28.7007 60.2673 33.2109 59.9201C40.0708 59.3921 47.924 57.7529 52.9141 52.5607C57.9401 47.3315 59.5723 39.347 59.5469 32.342C59.5097 26.1958 57.69 19.5691 53.668 14.7717C48.8608 9.03788 41.4705 4.58955 33.9062 4.06855V4.06453ZM33.7695 6.05683C40.6333 6.52963 47.6515 10.7077 52.1328 16.0529C55.758 20.3769 57.5121 26.5954 57.5469 32.3498C57.5711 39.0308 55.9334 46.5328 51.4726 51.174C47.0751 55.7498 39.706 57.4159 33.0547 57.9279C28.9445 58.2443 24.5622 57.3265 20.8789 55.4475C16.3818 53.1535 12.2272 49.5751 9.76171 45.2561C7.24575 40.8483 6.02008 35.3586 6.59374 30.342C7.3082 24.0938 9.98773 17.5143 14.5156 13.3225C19.545 8.66666 27.007 5.59123 33.7695 6.05683Z" fill="#1188EE"/>
<path fill-rule="evenodd" clip-rule="evenodd" d="M20.4648 7.68579L18.7383 8.69751L25.2383 19.8225L26.9648 18.8108L20.4648 7.68579Z" fill="#1188EE"/>
<path fill-rule="evenodd" clip-rule="evenodd" d="M44.7695 8.26392L37.8945 18.6389L39.5586 19.7444L46.4336 9.36938L44.7695 8.26392Z" fill="#1188EE"/>
<path fill-rule="evenodd" clip-rule="evenodd" d="M53.9609 17.3342L43.9609 23.3342L44.9922 25.0491L54.9922 19.0491L53.9609 17.3342Z" fill="#1188EE"/>
<path fill-rule="evenodd" clip-rule="evenodd" d="M45.3633 36.9553L44.3398 38.6741L56.0898 45.6741L57.1133 43.9553L45.3633 36.9553Z" fill="#1188EE"/>
<path fill-rule="evenodd" clip-rule="evenodd" d="M40.793 43.3538L38.9102 44.0295L43.4102 56.5295L45.293 55.8538L40.793 43.3538Z" fill="#1188EE"/>
<path fill-rule="evenodd" clip-rule="evenodd" d="M24.1133 44.0647L17.8633 54.8147L19.5898 55.8186L25.8398 45.0686L24.1133 44.0647Z" fill="#1188EE"/>
<path fill-rule="evenodd" clip-rule="evenodd" d="M19.4883 37.5686L8.36328 43.8186L9.33984 45.5647L20.4648 39.3147L19.4883 37.5686Z" fill="#1188EE"/>
<path fill-rule="evenodd" clip-rule="evenodd" d="M9.37891 17.8928L8.42578 19.6506L18.8008 25.2756L19.7539 23.5178L9.37891 17.8928Z" fill="#1188EE"/>
<path fill-rule="evenodd" clip-rule="evenodd" d="M10.9375 21.4359C10.824 21.4317 10.7124 21.4664 10.6211 21.534L6.43359 24.534C6.32583 24.6117 6.25335 24.7291 6.2321 24.8602C6.21085 24.9913 6.24256 25.1255 6.32026 25.2333C6.39796 25.341 6.51528 25.4134 6.64642 25.4347C6.77756 25.4559 6.91177 25.4242 7.01953 25.3465L11.207 22.3465C11.2934 22.2866 11.3587 22.2009 11.3936 22.1017C11.4285 22.0024 11.4312 21.8947 11.4014 21.7938C11.3715 21.6929 11.3106 21.6041 11.2273 21.5399C11.1441 21.4756 11.0426 21.4392 10.9375 21.4359Z" fill="#1188EE"/>
<path fill-rule="evenodd" clip-rule="evenodd" d="M11.6133 22.9983C11.4829 22.996 11.3567 23.0448 11.2617 23.1343L5.69924 28.2593C5.65075 28.3039 5.61153 28.3577 5.58382 28.4175C5.55611 28.4773 5.54044 28.5418 5.53772 28.6077C5.535 28.6735 5.54527 28.7392 5.56795 28.801C5.59064 28.8629 5.62528 28.9198 5.66992 28.9683C5.71455 29.0167 5.7683 29.056 5.82809 29.0837C5.88787 29.1114 5.95253 29.1269 6.01837 29.1296C6.08421 29.1323 6.14994 29.1221 6.2118 29.0994C6.27367 29.0767 6.33046 29.042 6.37892 28.9973L11.9414 23.8723C12.0174 23.8053 12.0712 23.717 12.0958 23.6187C12.1203 23.5203 12.1144 23.4167 12.0788 23.3218C12.0432 23.2269 11.9797 23.1451 11.8965 23.0872C11.8134 23.0292 11.7146 22.9988 11.6133 22.9983Z" fill="#1188EE"/>
<path fill-rule="evenodd" clip-rule="evenodd" d="M12.3867 25.1859C12.2749 25.1937 12.169 25.2387 12.0859 25.3138L4.8984 31.6266C4.84615 31.6688 4.80295 31.7211 4.77138 31.7804C4.73981 31.8397 4.72053 31.9048 4.71467 31.9718C4.70882 32.0387 4.71651 32.1061 4.7373 32.17C4.75809 32.2339 4.79155 32.2929 4.83567 32.3436C4.87979 32.3943 4.93368 32.4356 4.99411 32.4649C5.05454 32.4943 5.12027 32.5113 5.18738 32.5147C5.25449 32.5182 5.3216 32.5081 5.3847 32.485C5.44781 32.4619 5.50561 32.4262 5.55465 32.3802L12.7461 26.068C12.8276 26.0001 12.8855 25.9078 12.9112 25.8048C12.937 25.7018 12.9293 25.5933 12.8893 25.495C12.8492 25.3966 12.779 25.3136 12.6886 25.2579C12.5983 25.2022 12.4925 25.1775 12.3867 25.1859Z" fill="#1188EE"/>
<path fill-rule="evenodd" clip-rule="evenodd" d="M12.8047 27.6233C12.6748 27.6199 12.5487 27.6671 12.4531 27.7551L5.39063 34.1301C5.29224 34.2192 5.23327 34.344 5.22669 34.4766C5.22011 34.6091 5.26646 34.7387 5.35554 34.8372C5.44463 34.9356 5.56915 34.9946 5.70173 35.0012C5.83431 35.0078 5.96408 34.9614 6.06251 34.8723L13.125 28.4973C13.2005 28.4307 13.2542 28.343 13.279 28.2454C13.3037 28.1478 13.2985 28.045 13.2639 27.9504C13.2292 27.8559 13.1669 27.7741 13.085 27.7156C13.003 27.657 12.9054 27.6254 12.8047 27.6233Z" fill="#1188EE"/>
<path fill-rule="evenodd" clip-rule="evenodd" d="M13.5156 30.0608C13.4043 30.0674 13.2985 30.1111 13.2148 30.1848L5.58984 36.7473C5.5386 36.7897 5.49633 36.8417 5.4655 36.9006C5.43467 36.9595 5.4159 37.0241 5.41029 37.0903C5.40468 37.1566 5.41234 37.2233 5.43282 37.2866C5.45331 37.3499 5.4862 37.4083 5.52959 37.4587C5.57297 37.5091 5.62596 37.5504 5.68547 37.5801C5.74499 37.6097 5.80982 37.6273 5.87617 37.6316C5.94253 37.6359 6.00907 37.6269 6.07192 37.6052C6.13477 37.5835 6.19265 37.5495 6.24218 37.5051L13.8672 30.9426C13.948 30.8751 14.0055 30.7837 14.0313 30.6816C14.0571 30.5795 14.0501 30.4719 14.0111 30.374C13.9721 30.2761 13.9032 30.1929 13.8143 30.1365C13.7253 30.0801 13.6208 30.0543 13.5156 30.0608Z" fill="#1188EE"/>
<path fill-rule="evenodd" clip-rule="evenodd" d="M14.3906 32.8733C14.278 32.8791 14.1706 32.9228 14.0859 32.9973L6.39845 39.6223C6.29798 39.7093 6.2362 39.8327 6.22669 39.9653C6.21718 40.0979 6.26072 40.2286 6.34773 40.3291C6.43475 40.4296 6.55811 40.4914 6.69069 40.501C6.82327 40.5105 6.9542 40.4671 7.0547 40.3801L14.7422 33.7551C14.823 33.6876 14.8805 33.596 14.9063 33.4939C14.9322 33.3918 14.9251 33.2841 14.8861 33.1863C14.8471 33.0884 14.7782 33.0054 14.6893 32.949C14.6003 32.8926 14.4958 32.8668 14.3906 32.8733Z" fill="#1188EE"/>
<path fill-rule="evenodd" clip-rule="evenodd" d="M14.9609 35.9983C14.8485 36.0035 14.7412 36.0463 14.6562 36.1201L7.34373 42.2451C7.2932 42.2872 7.25145 42.339 7.22086 42.3972C7.19028 42.4554 7.17145 42.519 7.16547 42.5845C7.15948 42.6499 7.16646 42.7158 7.18598 42.7786C7.20551 42.8413 7.23722 42.8997 7.27928 42.9502C7.32135 43.0007 7.37296 43.0427 7.43116 43.0732C7.48936 43.1038 7.55302 43.1224 7.61849 43.1284C7.68396 43.1344 7.74997 43.1274 7.81275 43.1079C7.87552 43.0884 7.93383 43.0567 7.98435 43.0146L15.2969 36.8896C15.3796 36.8237 15.4393 36.7333 15.4674 36.6313C15.4955 36.5294 15.4905 36.421 15.4532 36.322C15.4158 36.223 15.3481 36.1384 15.2596 36.0803C15.1712 36.0223 15.0666 35.9931 14.9609 35.9983Z" fill="#1188EE"/>
</svg>
