<svg width="9" height="10" viewBox="0 0 9 10" fill="none" xmlns="http://www.w3.org/2000/svg">
<path d="M4.5 0C2.92815 0 1.65789 1.14112 1.65789 2.55319V3.61702H0.710526C0.30808 3.61702 0 3.89378 0 4.25532V9.3617C0 9.72324 0.30808 10 0.710526 10H8.28947C8.69192 10 9 9.72324 9 9.3617V4.25532C9 3.89378 8.69192 3.61702 8.28947 3.61702H7.34211V2.55319C7.34211 1.14112 6.07185 0 4.5 0ZM4.5 0.425532C5.81836 0.425532 6.86842 1.36885 6.86842 2.55319V3.61702H2.13158V2.55319C2.13158 1.36885 3.18164 0.425532 4.5 0.425532ZM4.5 5.74468C4.90245 5.74468 5.21053 6.02144 5.21053 6.38298C5.21053 6.57414 5.11616 6.74202 4.97368 6.8484V7.44681C4.97368 7.68118 4.7609 7.87234 4.5 7.87234C4.2391 7.87234 4.02632 7.68118 4.02632 7.44681V6.8484C3.88384 6.74202 3.78947 6.57414 3.78947 6.38298C3.78947 6.02144 4.09755 5.74468 4.5 5.74468Z" fill="#13D31B"/>
</svg>
