<svg width="64" height="64" viewBox="0 0 64 64" fill="none" xmlns="http://www.w3.org/2000/svg">
<path fill-rule="evenodd" clip-rule="evenodd" d="M31.8828 15.5921C29.1222 15.5621 26.358 15.7561 23.6446 16.2093C20.3667 16.7555 16.8617 17.6001 13.9805 19.6273C11.6805 21.2457 10.0219 23.609 8.79299 25.9866C7.52309 28.4434 6.68009 31.2173 6.55862 34.0257C6.38531 38.0009 6.91557 42.2555 8.79299 45.9007C11.7286 51.6005 16.3082 57.0913 22.2617 59.8499C26.7125 61.9123 32.0249 61.8797 36.6602 60.7913C42.1926 59.4923 47.637 56.5302 51.4336 52.2288C54.7281 48.4962 56.4475 43.5011 57.1719 38.7171C57.7577 34.8483 57.5532 30.6219 55.9766 26.9281C54.7002 23.9377 52.3799 21.4 49.7422 19.6156C46.8355 17.6496 43.3466 16.8811 40.0977 16.3343C37.3983 15.8799 34.6434 15.6227 31.8828 15.5921ZM31.8594 17.5921C34.5106 17.6221 37.1645 17.8692 39.7656 18.307C42.9355 18.8406 46.1363 19.5912 48.6211 21.2718C50.977 22.8656 53.0463 25.1586 54.1367 27.7132C55.5189 30.9516 55.738 34.8364 55.1953 38.4202C54.5109 42.9404 52.8664 47.5857 49.9336 50.9085C46.4663 54.8369 41.3575 57.6356 36.2031 58.846C31.8965 59.8572 26.9848 59.8366 23.1016 58.0374C17.7187 55.5432 13.3555 50.3942 10.5703 44.9866C8.91535 41.7732 8.39592 37.8434 8.55861 34.1116C8.66514 31.6488 9.41743 29.135 10.5703 26.9046C11.7078 24.7036 13.218 22.6116 15.1328 21.264C17.5972 19.5302 20.8033 18.7102 23.9727 18.182C26.5612 17.7508 29.2082 17.5629 31.8594 17.5921Z" fill="#1188EE"/>
<path fill-rule="evenodd" clip-rule="evenodd" d="M9.86333 25.5608C9.66476 25.5723 9.47413 25.6428 9.3158 25.7632C9.15747 25.8835 9.03864 26.0483 8.97448 26.2365C8.91032 26.4248 8.90376 26.628 8.95563 26.82C9.0075 27.0121 9.11544 27.1843 9.26567 27.3147C9.26567 27.3147 10.2022 28.1511 11.4219 29.0959C12.6417 30.0405 14.1082 31.1038 15.4415 31.6272C21.0901 33.8442 27.3067 34.1218 33.1915 34.0686C45.641 33.9566 55.2696 28.7248 55.2696 28.7248C55.3884 28.6642 55.4939 28.5803 55.5799 28.4782C55.6659 28.3762 55.7305 28.258 55.7701 28.1306C55.8096 28.0032 55.8233 27.8691 55.8103 27.7363C55.7972 27.6035 55.7577 27.4747 55.6941 27.3574C55.6305 27.2401 55.5441 27.1366 55.4399 27.0532C55.3357 26.9698 55.2159 26.9082 55.0876 26.8718C54.9592 26.8354 54.8248 26.8252 54.6924 26.8415C54.5599 26.8579 54.4321 26.9005 54.3165 26.967C54.3165 26.967 45.0708 31.961 33.1719 32.0686C27.3663 32.1206 21.406 31.8183 16.1719 29.7639C15.2778 29.4131 13.8094 28.4131 12.6485 27.5139C11.4876 26.6149 10.5977 25.8225 10.5977 25.8225C10.499 25.7319 10.3832 25.6621 10.2571 25.6172C10.1309 25.5722 9.99702 25.553 9.86333 25.5608Z" fill="#1188EE"/>
<path fill-rule="evenodd" clip-rule="evenodd" d="M55.9024 32.6858C55.6431 32.6961 55.398 32.8067 55.2188 32.9944C55.2188 32.9944 54.7679 33.4523 54.1797 33.9905C53.5916 34.5289 52.8386 35.1519 52.4258 35.3889C49.9918 36.7871 47.1947 37.6643 44.3672 38.2131C41.9513 38.6823 36.336 38.5686 36.336 38.5686C36.2046 38.5649 36.0738 38.5871 35.9511 38.634C35.8283 38.6809 35.716 38.7517 35.6206 38.842C35.5251 38.9324 35.4484 39.0407 35.3948 39.1606C35.3412 39.2806 35.3118 39.4099 35.3082 39.5413C35.3046 39.6726 35.3269 39.8035 35.3739 39.9263C35.4208 40.049 35.4915 40.1612 35.5819 40.2566C35.6723 40.352 35.7805 40.4286 35.9006 40.4822C36.0206 40.5357 36.1499 40.5651 36.2813 40.5686C36.2813 40.5686 41.7612 40.7586 44.7501 40.178C47.7262 39.6004 50.7296 38.6699 53.4219 37.1233C54.1508 36.7045 54.9005 36.0483 55.5313 35.4709C56.1621 34.8935 56.6446 34.4004 56.6446 34.4004C56.7881 34.2587 56.8853 34.0769 56.9236 33.8789C56.9619 33.6809 56.9395 33.476 56.8592 33.291C56.779 33.106 56.6446 32.9496 56.4739 32.8423C56.3031 32.735 56.1039 32.6818 55.9024 32.6897L55.9024 32.6858Z" fill="#1188EE"/>
<path fill-rule="evenodd" clip-rule="evenodd" d="M55.0899 41.3342C54.9326 41.339 54.7787 41.3809 54.6407 41.4563C54.6407 41.4563 49.4203 44.1376 46.9063 44.8586C45.2213 45.3418 41.1055 45.6985 41.1055 45.6985C40.8408 45.7192 40.5952 45.8441 40.4226 46.0459C40.2501 46.2477 40.1648 46.5099 40.1856 46.7747C40.2063 47.0394 40.3313 47.285 40.5331 47.4575C40.735 47.63 40.9971 47.7153 41.2618 47.6946C41.2618 47.6946 45.2565 47.4115 47.4571 46.7805C50.4867 45.9115 55.5665 43.2297 55.5665 43.2297C55.7705 43.128 55.9336 42.9598 56.0288 42.7527C56.124 42.5456 56.1456 42.3119 56.09 42.0908C56.0344 41.8697 55.9049 41.6743 55.723 41.5369C55.5411 41.3994 55.3178 41.3273 55.0899 41.3342Z" fill="#1188EE"/>
<path fill-rule="evenodd" clip-rule="evenodd" d="M32.4219 19.8811C30.5838 19.9011 28.2321 19.939 25.9922 20.1076C23.7509 20.2756 21.6496 20.5463 20.1328 21.1389C17.2429 22.2685 15.8438 24.4006 15.8438 24.4006C15.7716 24.5117 15.7222 24.636 15.6985 24.7663C15.6747 24.8966 15.6771 25.0303 15.7054 25.1596C15.7338 25.289 15.7875 25.4113 15.8636 25.5197C15.9396 25.6282 16.0365 25.7205 16.1484 25.7912C16.1484 25.7912 20.6505 28.6768 24.7891 29.549C28.848 30.4048 35.534 30.4392 39.6289 29.611C43.8066 28.7666 48.457 25.8569 48.457 25.8569C48.5917 25.7737 48.7047 25.66 48.7868 25.5246C48.8688 25.3893 48.9176 25.2362 48.929 25.0783C48.9405 24.9205 48.9143 24.7622 48.8526 24.6164C48.7909 24.4706 48.6955 24.3414 48.5742 24.2397C48.5742 24.2397 45.6253 21.6825 42.6758 20.7397C39.8096 19.8237 36.0931 19.8481 32.4258 19.8803L32.4219 19.8811ZM32.4415 21.8811C36.0949 21.8491 39.7121 21.9011 42.0665 22.6467C43.7441 23.1829 44.965 24.2341 45.922 24.9553C44.4035 25.7933 41.8313 27.1258 39.2345 27.6506C35.593 28.3866 28.811 28.3525 25.2032 27.5925C22.5009 27.0229 19.8374 25.5743 18.4649 24.7881C18.8951 24.2753 19.1979 23.6523 20.8595 23.0029C21.9461 22.5783 23.9794 22.2671 26.1407 22.1045C28.302 21.9425 30.619 21.8971 32.4415 21.8811Z" fill="#1188EE"/>
<path fill-rule="evenodd" clip-rule="evenodd" d="M22.8867 11.3381L20.9766 11.928L26.1641 28.803L28.0742 28.2131L22.8867 11.3381Z" fill="#1188EE"/>
<path fill-rule="evenodd" clip-rule="evenodd" d="M49.6055 6.56452C49.4819 6.56808 49.36 6.59453 49.2461 6.64252L40.7461 10.08C40.5884 10.1441 40.4497 10.2472 40.3431 10.3798C40.2365 10.5124 40.1654 10.6701 40.1367 10.8378L37.0703 28.5253C37.048 28.6549 37.0514 28.7875 37.0804 28.9157C37.1093 29.0439 37.1633 29.1653 37.2391 29.2726C37.3922 29.4895 37.6252 29.6365 37.8867 29.6816C38.0163 29.7039 38.1489 29.7005 38.2771 29.6716C38.4053 29.6426 38.5266 29.5887 38.6339 29.5129C38.8508 29.3598 38.9979 29.1268 39.043 28.8652L42.0117 11.7246L49.9961 8.49799C50.217 8.41344 50.4009 8.25335 50.5149 8.04608C50.6289 7.83881 50.6658 7.5978 50.619 7.36591C50.5721 7.13402 50.4446 6.92623 50.259 6.77948C50.0735 6.63274 49.8419 6.55666 49.6055 6.56452Z" fill="#1188EE"/>
<path fill-rule="evenodd" clip-rule="evenodd" d="M20.711 5.06863C20.5699 5.07389 20.4315 5.10906 20.3049 5.17166C20.1783 5.23426 20.0664 5.32296 19.9766 5.43191L13.5391 13.1819C13.4047 13.3447 13.3252 13.5457 13.3121 13.7564C13.2989 13.9671 13.3528 14.1766 13.4659 14.3548C13.5791 14.533 13.7458 14.6708 13.942 14.7486C14.1383 14.8263 14.3541 14.8398 14.5586 14.7874L30.4961 10.6624C30.7014 10.6091 30.8844 10.4922 31.0187 10.3282C31.1531 10.1641 31.2318 9.9615 31.2435 9.74978C31.2553 9.53806 31.1994 9.32807 31.084 9.15017C30.9686 8.97227 30.7997 8.83565 30.6016 8.76004L21.1016 5.13503C20.9771 5.08721 20.8443 5.06436 20.711 5.06863ZM21.0586 7.25601L26.961 9.51004L17.0586 12.0725L21.0586 7.25601Z" fill="#1188EE"/>
<path fill-rule="evenodd" clip-rule="evenodd" d="M19.9492 2.47112C19.7924 2.47731 19.6393 2.52025 19.5021 2.5966C19.365 2.67296 19.2478 2.78052 19.16 2.91057C19.0721 3.04062 19.0161 3.18956 18.9964 3.34526C18.9768 3.50097 18.9941 3.65914 19.0469 3.80693L19.8594 6.20525C19.8998 6.33175 19.9649 6.44892 20.051 6.54997C20.1372 6.65103 20.2426 6.73398 20.3611 6.79387C20.4796 6.85376 20.6088 6.88944 20.7413 6.89885C20.8737 6.90826 21.0067 6.89121 21.1325 6.84868C21.2583 6.80615 21.3744 6.73903 21.4739 6.65117C21.5735 6.56331 21.6545 6.45648 21.7124 6.33696C21.7702 6.21744 21.8037 6.08759 21.8108 5.955C21.818 5.82241 21.7986 5.68966 21.7539 5.56462L20.9414 3.16631C20.8749 2.95784 20.7418 2.77687 20.5626 2.65129C20.3834 2.52572 20.1679 2.46248 19.9492 2.47112Z" fill="#1188EE"/>
<path fill-rule="evenodd" clip-rule="evenodd" d="M13.5508 33.635C13.456 33.6422 13.3652 33.6763 13.2891 33.7332L7.45316 37.8855C7.39955 37.9238 7.354 37.972 7.3191 38.0279C7.2842 38.0837 7.26064 38.1458 7.24975 38.2107C7.23887 38.2757 7.24089 38.3421 7.25568 38.4063C7.27047 38.4704 7.29776 38.5311 7.33597 38.5848C7.37419 38.6384 7.42259 38.6839 7.47841 38.7188C7.53424 38.7537 7.59638 38.7772 7.66131 38.7881C7.72624 38.799 7.79268 38.7971 7.85683 38.7823C7.92098 38.7675 7.98158 38.7402 8.03519 38.7019L13.8672 34.5457C13.9571 34.4835 14.0241 34.3935 14.058 34.2896C14.0919 34.1857 14.0908 34.0735 14.055 33.9703C14.0191 33.867 13.9503 33.7785 13.8593 33.7181C13.7682 33.6576 13.6599 33.6281 13.5508 33.635Z" fill="#1188EE"/>
<path fill-rule="evenodd" clip-rule="evenodd" d="M15.4727 35.8459C15.378 35.8573 15.2886 35.8955 15.2149 35.956L8.58598 41.1711C8.53029 41.2101 8.48314 41.26 8.44741 41.3179C8.41168 41.3757 8.38812 41.4403 8.37818 41.5076C8.36824 41.5748 8.37211 41.6433 8.38958 41.709C8.40704 41.7747 8.43773 41.8362 8.47975 41.8896C8.52178 41.9431 8.57426 41.9875 8.634 42.02C8.69374 42.0525 8.75947 42.0724 8.82718 42.0786C8.89489 42.0848 8.96315 42.0772 9.0278 42.0561C9.09245 42.0351 9.15212 42.001 9.20317 41.956L15.8321 36.7412C15.919 36.6748 15.9818 36.5818 16.0108 36.4763C16.0398 36.3708 16.0335 36.2587 15.9927 36.1572C15.9519 36.0557 15.879 35.9704 15.785 35.9143C15.6911 35.8582 15.5814 35.8337 15.4727 35.8459Z" fill="#1188EE"/>
<path fill-rule="evenodd" clip-rule="evenodd" d="M18.1523 37.7014C18.0397 37.7072 17.9323 37.7509 17.8477 37.8254L9.80468 44.72C9.75345 44.7623 9.71118 44.8146 9.68035 44.8735C9.64952 44.9324 9.63075 44.997 9.62514 45.0632C9.61952 45.1295 9.62718 45.196 9.64767 45.2593C9.66815 45.3225 9.70105 45.3812 9.74443 45.4316C9.78781 45.482 9.84081 45.5233 9.90032 45.553C9.95983 45.5826 10.0247 45.5999 10.091 45.6042C10.1574 45.6085 10.2239 45.5996 10.2868 45.5779C10.3496 45.5561 10.4075 45.5221 10.457 45.4778L18.5 38.5842C18.5805 38.5168 18.6377 38.4259 18.6636 38.3242C18.6895 38.2225 18.6828 38.1152 18.6443 38.0176C18.6059 37.9199 18.5377 37.8367 18.4494 37.78C18.3611 37.7233 18.2571 37.6958 18.1523 37.7014Z" fill="#1188EE"/>
<path fill-rule="evenodd" clip-rule="evenodd" d="M20.1836 40.4397C20.0705 40.4466 19.963 40.4916 19.8789 40.5676L11.5703 47.8137C11.5184 47.8561 11.4755 47.9083 11.4442 47.9675C11.4129 48.0268 11.3939 48.0919 11.3882 48.1587C11.3825 48.2254 11.3902 48.2925 11.411 48.3562C11.4318 48.4199 11.4652 48.4787 11.5092 48.5293C11.5532 48.5798 11.6069 48.6212 11.6671 48.6506C11.7274 48.68 11.7929 48.6969 11.8598 48.7004C11.9267 48.704 11.9937 48.6942 12.0567 48.6714C12.1197 48.6486 12.1775 48.6132 12.2266 48.5676L20.5352 41.3215C20.616 41.254 20.6734 41.1624 20.6993 41.0603C20.7251 40.9582 20.7181 40.8505 20.6791 40.7527C20.6401 40.6548 20.5712 40.5718 20.4822 40.5154C20.3933 40.459 20.2887 40.4332 20.1836 40.4397Z" fill="#1188EE"/>
<path fill-rule="evenodd" clip-rule="evenodd" d="M22.4063 42.9163C22.293 42.9195 22.1842 42.961 22.0977 43.0342L12.9961 50.5461C12.8936 50.6306 12.8288 50.7523 12.8159 50.8845C12.8031 51.0167 12.8434 51.1484 12.9278 51.251C13.0122 51.3535 13.1339 51.4186 13.2662 51.4314C13.3984 51.4442 13.5303 51.4038 13.6328 51.3193L22.7344 43.8076C22.8165 43.7421 22.8759 43.6525 22.9041 43.5513C22.9323 43.4501 22.928 43.3425 22.8917 43.2439C22.8554 43.1453 22.7889 43.0606 22.7018 43.002C22.6147 42.9433 22.5113 42.9129 22.4063 42.9163Z" fill="#1188EE"/>
<path fill-rule="evenodd" clip-rule="evenodd" d="M24.5156 46.01C24.4199 46.0153 24.3277 46.0479 24.25 46.104L14.8789 52.7329C14.8253 52.7709 14.7797 52.819 14.7447 52.8745C14.7097 52.9301 14.6859 52.9922 14.6749 53.0569C14.6638 53.1217 14.6656 53.1879 14.6802 53.252C14.6947 53.316 14.7217 53.3766 14.7597 53.4302C14.7977 53.4838 14.8458 53.5295 14.9014 53.5645C14.957 53.5995 15.0189 53.623 15.0837 53.6341C15.1485 53.6451 15.2148 53.6435 15.2788 53.6289C15.3429 53.6144 15.4034 53.5873 15.457 53.5493L24.8281 46.9204C24.9176 46.8584 24.9844 46.7688 25.0183 46.6653C25.0522 46.5618 25.0515 46.4502 25.0161 46.3472C24.9808 46.2442 24.9127 46.1556 24.8224 46.0948C24.7321 46.0339 24.6244 46.004 24.5156 46.01Z" fill="#1188EE"/>
<path fill-rule="evenodd" clip-rule="evenodd" d="M27.1992 47.7757C27.0861 47.7746 26.9759 47.8119 26.8867 47.8816L18.1367 54.5108C18.0311 54.5911 17.9616 54.7098 17.9437 54.8413C17.9257 54.9728 17.9608 55.106 18.0411 55.2117C18.1213 55.3174 18.2403 55.3869 18.3718 55.4048C18.5033 55.4227 18.6365 55.3877 18.7422 55.3074L27.4922 48.6787C27.5766 48.6164 27.6393 48.5291 27.6714 48.4292C27.7035 48.3293 27.7033 48.2217 27.6709 48.1218C27.6385 48.022 27.5755 47.9349 27.4908 47.8728C27.4062 47.8108 27.3042 47.7765 27.1992 47.7757Z" fill="#1188EE"/>
<path fill-rule="evenodd" clip-rule="evenodd" d="M29.8594 49.6311C29.7462 49.6301 29.6361 49.6674 29.5469 49.7371L20.0859 56.7176C20.0319 56.7561 19.986 56.8049 19.9511 56.8613C19.9161 56.9178 19.8927 56.9804 19.8823 57.0459C19.8718 57.1115 19.8745 57.1785 19.8902 57.2429C19.9059 57.3074 19.9343 57.3682 19.9737 57.4217C20.0131 57.4751 20.0628 57.52 20.1198 57.554C20.1768 57.588 20.24 57.6105 20.3057 57.6199C20.3714 57.6292 20.4383 57.6252 20.5025 57.6084C20.5667 57.5916 20.627 57.5623 20.6797 57.522L30.1406 50.5379C30.226 50.4767 30.2899 50.3901 30.3234 50.2905C30.3568 50.191 30.3581 50.0835 30.3269 49.9832C30.2958 49.8829 30.2339 49.7948 30.15 49.7317C30.0661 49.6686 29.9644 49.6332 29.8594 49.6311Z" fill="#1188EE"/>
<path fill-rule="evenodd" clip-rule="evenodd" d="M32.5195 51.7522C32.3889 51.7467 32.2613 51.7926 32.1641 51.8801L24.4766 58.5991C24.4246 58.6415 24.3818 58.6937 24.3505 58.7529C24.3192 58.8122 24.3001 58.8773 24.2944 58.9441C24.2887 59.0109 24.2965 59.0779 24.3173 59.1416C24.3381 59.2053 24.3715 59.2642 24.4155 59.3147C24.4595 59.3652 24.5132 59.4067 24.5734 59.436C24.6336 59.4654 24.6991 59.4823 24.766 59.4858C24.833 59.4894 24.8999 59.4796 24.9629 59.4568C25.0259 59.434 25.0837 59.3986 25.1328 59.353L32.8242 52.6343C32.9017 52.5692 32.9577 52.482 32.9847 52.3845C33.0117 52.287 33.0085 52.1838 32.9755 52.0881C32.9424 51.9925 32.8812 51.909 32.7998 51.8489C32.7184 51.7888 32.6207 51.7556 32.5195 51.7522Z" fill="#1188EE"/>
<path fill-rule="evenodd" clip-rule="evenodd" d="M35.7422 54.139C35.6124 54.1461 35.4905 54.2034 35.4023 54.2989L29.7461 60.221C29.7007 60.2684 29.6651 60.3243 29.6413 60.3855C29.6175 60.4468 29.606 60.512 29.6075 60.5777C29.6089 60.6433 29.6233 60.708 29.6498 60.7681C29.6762 60.8282 29.7143 60.8826 29.7617 60.928C29.8092 60.9734 29.8651 61.009 29.9263 61.0328C29.9875 61.0565 30.0528 61.0679 30.1185 61.0665C30.1841 61.065 30.2489 61.0507 30.309 61.0242C30.3691 60.9978 30.4234 60.9599 30.4688 60.9124L36.125 54.9903C36.1963 54.9185 36.2441 54.8269 36.2622 54.7273C36.2802 54.6278 36.2677 54.5252 36.2263 54.4329C36.1848 54.3407 36.1163 54.2633 36.0299 54.2107C35.9435 54.1582 35.8432 54.1333 35.7422 54.139Z" fill="#1188EE"/>
</svg>
