<svg width="52" height="60" viewBox="0 0 52 60" fill="none" xmlns="http://www.w3.org/2000/svg">
<path fill-rule="evenodd" clip-rule="evenodd" d="M25.8828 13.5921C23.1222 13.5621 20.358 13.7561 17.6446 14.2093C14.3667 14.7555 10.8617 15.6001 7.98049 17.6273C5.68054 19.2457 4.02188 21.609 2.79299 23.9866C1.52309 26.4434 0.680091 29.2173 0.558616 32.0257C0.385312 36.0009 0.91557 40.2555 2.79299 43.9007C5.72861 49.6005 10.3082 55.0913 16.2617 57.8499C20.7125 59.9123 26.0249 59.8797 30.6602 58.7913C36.1926 57.4923 41.637 54.5302 45.4336 50.2288C48.7281 46.4962 50.4475 41.5011 51.1719 36.7171C51.7577 32.8483 51.5532 28.6219 49.9766 24.9281C48.7002 21.9377 46.3799 19.4 43.7422 17.6156C40.8355 15.6496 37.3466 14.8811 34.0977 14.3343C31.3983 13.8799 28.6434 13.6227 25.8828 13.5921ZM25.8594 15.5921C28.5106 15.6221 31.1645 15.8692 33.7656 16.307C36.9355 16.8406 40.1363 17.5912 42.6211 19.2718C44.977 20.8656 47.0463 23.1586 48.1367 25.7132C49.5189 28.9516 49.738 32.8364 49.1953 36.4202C48.5109 40.9404 46.8664 45.5857 43.9336 48.9085C40.4663 52.8369 35.3575 55.6356 30.2031 56.846C25.8965 57.8572 20.9848 57.8366 17.1016 56.0374C11.7187 53.5432 7.35551 48.3942 4.57033 42.9866C2.91535 39.7732 2.39592 35.8434 2.55861 32.1116C2.66514 29.6488 3.41743 27.135 4.57033 24.9046C5.70784 22.7036 7.21798 20.6116 9.13283 19.264C11.5972 17.5302 14.8033 16.7102 17.9727 16.182C20.5612 15.7508 23.2082 15.5629 25.8594 15.5921Z" fill="#1188EE"/>
<path fill-rule="evenodd" clip-rule="evenodd" d="M3.86333 23.5608C3.66476 23.5723 3.47413 23.6428 3.3158 23.7632C3.15747 23.8835 3.03864 24.0483 2.97448 24.2365C2.91032 24.4248 2.90376 24.628 2.95563 24.82C3.0075 25.0121 3.11544 25.1843 3.26567 25.3147C3.26567 25.3147 4.20215 26.1511 5.42192 27.0959C6.64169 28.0405 8.10815 29.1038 9.44145 29.6272C15.0901 31.8442 21.3067 32.1218 27.1915 32.0686C39.641 31.9566 49.2696 26.7248 49.2696 26.7248C49.3884 26.6642 49.4939 26.5803 49.5799 26.4782C49.6659 26.3762 49.7305 26.258 49.7701 26.1306C49.8096 26.0032 49.8233 25.8691 49.8103 25.7363C49.7972 25.6035 49.7577 25.4747 49.6941 25.3574C49.6305 25.2401 49.5441 25.1366 49.4399 25.0532C49.3357 24.9698 49.2159 24.9082 49.0876 24.8718C48.9592 24.8354 48.8248 24.8252 48.6924 24.8415C48.5599 24.8579 48.4321 24.9005 48.3165 24.967C48.3165 24.967 39.0708 29.961 27.1719 30.0686C21.3663 30.1206 15.406 29.8183 10.1719 27.7639C9.27782 27.4131 7.80937 26.4131 6.64848 25.5139C5.4876 24.6149 4.5977 23.8225 4.5977 23.8225C4.49904 23.7319 4.3832 23.6621 4.25705 23.6172C4.1309 23.5722 3.99702 23.553 3.86333 23.5608Z" fill="#1188EE"/>
<path fill-rule="evenodd" clip-rule="evenodd" d="M49.9024 30.6858C49.6431 30.6961 49.398 30.8067 49.2188 30.9944C49.2188 30.9944 48.7679 31.4523 48.1797 31.9905C47.5916 32.5289 46.8386 33.1519 46.4258 33.3889C43.9918 34.7871 41.1947 35.6643 38.3672 36.2131C35.9513 36.6823 30.336 36.5686 30.336 36.5686C30.2046 36.5649 30.0738 36.5871 29.9511 36.634C29.8283 36.6809 29.716 36.7517 29.6206 36.842C29.5251 36.9324 29.4484 37.0407 29.3948 37.1606C29.3412 37.2806 29.3118 37.4099 29.3082 37.5413C29.3046 37.6726 29.3269 37.8035 29.3739 37.9263C29.4208 38.049 29.4915 38.1612 29.5819 38.2566C29.6723 38.352 29.7805 38.4286 29.9006 38.4822C30.0206 38.5357 30.1499 38.5651 30.2813 38.5686C30.2813 38.5686 35.7612 38.7586 38.7501 38.178C41.7262 37.6004 44.7296 36.6699 47.4219 35.1233C48.1508 34.7045 48.9005 34.0483 49.5313 33.4709C50.1621 32.8935 50.6446 32.4004 50.6446 32.4004C50.7881 32.2587 50.8853 32.0769 50.9236 31.8789C50.9619 31.6809 50.9395 31.476 50.8592 31.291C50.779 31.106 50.6446 30.9496 50.4739 30.8423C50.3031 30.735 50.1039 30.6818 49.9024 30.6897L49.9024 30.6858Z" fill="#1188EE"/>
<path fill-rule="evenodd" clip-rule="evenodd" d="M49.0899 39.3342C48.9326 39.339 48.7787 39.3809 48.6407 39.4563C48.6407 39.4563 43.4203 42.1376 40.9063 42.8586C39.2213 43.3418 35.1055 43.6985 35.1055 43.6985C34.8408 43.7192 34.5952 43.8441 34.4226 44.0459C34.2501 44.2477 34.1648 44.5099 34.1856 44.7747C34.2063 45.0394 34.3313 45.285 34.5331 45.4575C34.735 45.63 34.9971 45.7153 35.2618 45.6946C35.2618 45.6946 39.2565 45.4115 41.4571 44.7805C44.4867 43.9115 49.5665 41.2297 49.5665 41.2297C49.7705 41.128 49.9336 40.9598 50.0288 40.7527C50.124 40.5456 50.1456 40.3119 50.09 40.0908C50.0344 39.8697 49.9049 39.6743 49.723 39.5369C49.5411 39.3994 49.3178 39.3273 49.0899 39.3342Z" fill="#1188EE"/>
<path fill-rule="evenodd" clip-rule="evenodd" d="M26.4219 17.8811C24.5838 17.9011 22.2321 17.939 19.9922 18.1076C17.7509 18.2756 15.6496 18.5463 14.1328 19.1389C11.2429 20.2685 9.84376 22.4006 9.84376 22.4006C9.77159 22.5117 9.72221 22.636 9.69846 22.7663C9.67471 22.8966 9.67708 23.0303 9.70543 23.1596C9.73377 23.289 9.78753 23.4113 9.86358 23.5197C9.93963 23.6282 10.0365 23.7205 10.1484 23.7912C10.1484 23.7912 14.6505 26.6768 18.7891 27.549C22.848 28.4048 29.534 28.4392 33.6289 27.611C37.8066 26.7666 42.457 23.8569 42.457 23.8569C42.5917 23.7737 42.7047 23.66 42.7868 23.5246C42.8688 23.3893 42.9176 23.2362 42.929 23.0783C42.9405 22.9205 42.9143 22.7622 42.8526 22.6164C42.7909 22.4706 42.6955 22.3414 42.5742 22.2397C42.5742 22.2397 39.6253 19.6825 36.6758 18.7397C33.8096 17.8237 30.0931 17.8481 26.4258 17.8803L26.4219 17.8811ZM26.4415 19.8811C30.0949 19.8491 33.7121 19.9011 36.0665 20.6467C37.7441 21.1829 38.965 22.2341 39.922 22.9553C38.4035 23.7933 35.8313 25.1258 33.2345 25.6506C29.593 26.3866 22.811 26.3525 19.2032 25.5925C16.5009 25.0229 13.8374 23.5743 12.4649 22.7881C12.8951 22.2753 13.1979 21.6523 14.8595 21.0029C15.9461 20.5783 17.9794 20.2671 20.1407 20.1045C22.302 19.9425 24.619 19.8971 26.4415 19.8811Z" fill="#1188EE"/>
<path fill-rule="evenodd" clip-rule="evenodd" d="M16.8867 9.33813L14.9766 9.92798L20.1641 26.803L22.0742 26.2131L16.8867 9.33813Z" fill="#1188EE"/>
<path fill-rule="evenodd" clip-rule="evenodd" d="M43.6055 4.56452C43.4819 4.56808 43.36 4.59453 43.2461 4.64252L34.7461 8.08002C34.5884 8.14406 34.4497 8.24722 34.3431 8.37982C34.2365 8.51243 34.1654 8.67011 34.1367 8.83783L31.0703 26.5253C31.048 26.6549 31.0514 26.7875 31.0804 26.9157C31.1093 27.0439 31.1633 27.1653 31.2391 27.2726C31.3922 27.4895 31.6252 27.6365 31.8867 27.6816C32.0163 27.7039 32.1489 27.7005 32.2771 27.6716C32.4053 27.6426 32.5266 27.5887 32.6339 27.5129C32.8508 27.3598 32.9979 27.1268 33.043 26.8652L36.0117 9.72455L43.9961 6.49799C44.217 6.41344 44.4009 6.25335 44.5149 6.04608C44.6289 5.83881 44.6658 5.5978 44.619 5.36591C44.5721 5.13402 44.4446 4.92623 44.259 4.77948C44.0735 4.63274 43.8419 4.55666 43.6055 4.56452Z" fill="#1188EE"/>
<path fill-rule="evenodd" clip-rule="evenodd" d="M14.711 3.06863C14.5699 3.07389 14.4315 3.10906 14.3049 3.17166C14.1783 3.23426 14.0664 3.32296 13.9766 3.43191L7.5391 11.1819C7.40467 11.3447 7.3252 11.5457 7.31206 11.7564C7.29892 11.9671 7.35279 12.1766 7.46595 12.3548C7.57911 12.533 7.74576 12.6708 7.94203 12.7486C8.13831 12.8263 8.35414 12.8398 8.55863 12.7874L24.4961 8.66238C24.7014 8.60913 24.8844 8.4922 25.0187 8.32815C25.1531 8.1641 25.2318 7.9615 25.2435 7.74978C25.2553 7.53806 25.1994 7.32807 25.084 7.15017C24.9686 6.97227 24.7997 6.83565 24.6016 6.76004L15.1016 3.13503C14.9771 3.08721 14.8443 3.06436 14.711 3.06863ZM15.0586 5.25601L20.961 7.51004L11.0586 10.0725L15.0586 5.25601Z" fill="#1188EE"/>
<path fill-rule="evenodd" clip-rule="evenodd" d="M13.9492 0.471117C13.7924 0.477308 13.6393 0.520253 13.5021 0.596605C13.365 0.672956 13.2478 0.78052 13.16 0.91057C13.0721 1.04062 13.0161 1.18956 12.9964 1.34526C12.9768 1.50097 12.9941 1.65914 13.0469 1.80693L13.8594 4.20525C13.8998 4.33175 13.9649 4.44892 14.051 4.54997C14.1372 4.65103 14.2426 4.73398 14.3611 4.79387C14.4796 4.85376 14.6088 4.88944 14.7413 4.89885C14.8737 4.90826 15.0067 4.89121 15.1325 4.84868C15.2583 4.80615 15.3744 4.73903 15.4739 4.65117C15.5735 4.56331 15.6545 4.45648 15.7124 4.33696C15.7702 4.21744 15.8037 4.08759 15.8108 3.955C15.818 3.82241 15.7986 3.68966 15.7539 3.56462L14.9414 1.16631C14.8749 0.957837 14.7418 0.776866 14.5626 0.651292C14.3834 0.525719 14.1679 0.462485 13.9492 0.471117Z" fill="#1188EE"/>
<path fill-rule="evenodd" clip-rule="evenodd" d="M7.55082 31.635C7.45604 31.6422 7.36525 31.6763 7.2891 31.7332L1.45316 35.8855C1.39955 35.9238 1.354 35.972 1.3191 36.0279C1.2842 36.0837 1.26064 36.1458 1.24975 36.2107C1.23887 36.2757 1.24089 36.3421 1.25568 36.4063C1.27047 36.4704 1.29776 36.5311 1.33597 36.5848C1.37419 36.6384 1.42259 36.6839 1.47841 36.7188C1.53424 36.7537 1.59638 36.7772 1.66131 36.7881C1.72624 36.799 1.79268 36.7971 1.85683 36.7823C1.92098 36.7675 1.98158 36.7402 2.03519 36.7019L7.86722 32.5457C7.95709 32.4835 8.02411 32.3935 8.05801 32.2896C8.09191 32.1857 8.09084 32.0735 8.05495 31.9703C8.01906 31.867 7.95034 31.7785 7.85929 31.7181C7.76825 31.6576 7.65989 31.6281 7.55082 31.635Z" fill="#1188EE"/>
<path fill-rule="evenodd" clip-rule="evenodd" d="M9.4727 33.8459C9.37803 33.8573 9.28858 33.8955 9.21489 33.956L2.58598 39.1711C2.53029 39.2101 2.48314 39.26 2.44741 39.3179C2.41168 39.3757 2.38812 39.4403 2.37818 39.5076C2.36824 39.5748 2.37211 39.6433 2.38958 39.709C2.40704 39.7747 2.43773 39.8362 2.47975 39.8896C2.52178 39.9431 2.57426 39.9875 2.634 40.02C2.69374 40.0525 2.75947 40.0724 2.82718 40.0786C2.89489 40.0848 2.96315 40.0772 3.0278 40.0561C3.09245 40.0351 3.15212 40.001 3.20317 39.956L9.83208 34.7412C9.91903 34.6748 9.98182 34.5818 10.0108 34.4763C10.0398 34.3708 10.0335 34.2587 9.99268 34.1572C9.95189 34.0557 9.87895 33.9704 9.78503 33.9143C9.69112 33.8582 9.5814 33.8337 9.4727 33.8459Z" fill="#1188EE"/>
<path fill-rule="evenodd" clip-rule="evenodd" d="M12.1523 35.7014C12.0397 35.7072 11.9323 35.7509 11.8477 35.8254L3.80468 42.72C3.75345 42.7623 3.71118 42.8146 3.68035 42.8735C3.64952 42.9324 3.63075 42.997 3.62514 43.0632C3.61952 43.1295 3.62718 43.196 3.64767 43.2593C3.66815 43.3225 3.70105 43.3812 3.74443 43.4316C3.78781 43.482 3.84081 43.5233 3.90032 43.553C3.95983 43.5826 4.02466 43.5999 4.09102 43.6042C4.15737 43.6085 4.22392 43.5996 4.28677 43.5779C4.34961 43.5561 4.4075 43.5221 4.45703 43.4778L12.5 36.5842C12.5805 36.5168 12.6377 36.4259 12.6636 36.3242C12.6895 36.2225 12.6828 36.1152 12.6443 36.0176C12.6059 35.9199 12.5377 35.8367 12.4494 35.78C12.3611 35.7233 12.2571 35.6958 12.1523 35.7014Z" fill="#1188EE"/>
<path fill-rule="evenodd" clip-rule="evenodd" d="M14.1836 38.4397C14.0705 38.4466 13.963 38.4916 13.8789 38.5676L5.57032 45.8137C5.5184 45.8561 5.47551 45.9083 5.44422 45.9675C5.41293 46.0268 5.39387 46.0919 5.38817 46.1587C5.38246 46.2254 5.39024 46.2925 5.41104 46.3562C5.43183 46.4199 5.46522 46.4787 5.50921 46.5293C5.5532 46.5798 5.60691 46.6212 5.66714 46.6506C5.72736 46.68 5.79288 46.6969 5.8598 46.7004C5.92671 46.704 5.99366 46.6942 6.05667 46.6714C6.11968 46.6486 6.17746 46.6132 6.22657 46.5676L14.5352 39.3215C14.616 39.254 14.6734 39.1624 14.6993 39.0603C14.7251 38.9582 14.7181 38.8505 14.6791 38.7527C14.6401 38.6548 14.5712 38.5718 14.4822 38.5154C14.3933 38.459 14.2887 38.4332 14.1836 38.4397Z" fill="#1188EE"/>
<path fill-rule="evenodd" clip-rule="evenodd" d="M16.4063 40.9163C16.293 40.9195 16.1842 40.961 16.0977 41.0342L6.99613 48.5461C6.89357 48.6306 6.82875 48.7523 6.81594 48.8845C6.80312 49.0167 6.84336 49.1484 6.92779 49.251C7.01222 49.3535 7.13394 49.4186 7.26616 49.4314C7.39839 49.4442 7.53029 49.4038 7.63285 49.3193L16.7344 41.8076C16.8165 41.7421 16.8759 41.6525 16.9041 41.5513C16.9323 41.4501 16.928 41.3425 16.8917 41.2439C16.8554 41.1453 16.7889 41.0606 16.7018 41.002C16.6147 40.9433 16.5113 40.9129 16.4063 40.9163Z" fill="#1188EE"/>
<path fill-rule="evenodd" clip-rule="evenodd" d="M18.5156 44.01C18.4199 44.0153 18.3277 44.0479 18.25 44.104L8.8789 50.7329C8.82529 50.7709 8.77968 50.819 8.74467 50.8745C8.70966 50.9301 8.68594 50.9922 8.67488 51.0569C8.66381 51.1217 8.6656 51.1879 8.68016 51.252C8.69471 51.316 8.72175 51.3766 8.75971 51.4302C8.79767 51.4838 8.84583 51.5295 8.90142 51.5645C8.95701 51.5995 9.01895 51.623 9.0837 51.6341C9.14846 51.6451 9.21475 51.6435 9.27881 51.6289C9.34287 51.6144 9.40342 51.5873 9.45703 51.5493L18.8281 44.9204C18.9176 44.8584 18.9844 44.7688 19.0183 44.6653C19.0522 44.5618 19.0515 44.4502 19.0161 44.3472C18.9808 44.2442 18.9127 44.1556 18.8224 44.0948C18.7321 44.0339 18.6244 44.004 18.5156 44.01Z" fill="#1188EE"/>
<path fill-rule="evenodd" clip-rule="evenodd" d="M21.1992 45.7757C21.0861 45.7746 20.9759 45.8119 20.8867 45.8816L12.1367 52.5108C12.0311 52.5911 11.9616 52.7098 11.9437 52.8413C11.9257 52.9728 11.9608 53.106 12.0411 53.2117C12.1213 53.3174 12.2403 53.3869 12.3718 53.4048C12.5033 53.4227 12.6365 53.3877 12.7422 53.3074L21.4922 46.6787C21.5766 46.6164 21.6393 46.5291 21.6714 46.4292C21.7035 46.3293 21.7033 46.2217 21.6709 46.1218C21.6385 46.022 21.5755 45.9349 21.4908 45.8728C21.4062 45.8108 21.3042 45.7765 21.1992 45.7757Z" fill="#1188EE"/>
<path fill-rule="evenodd" clip-rule="evenodd" d="M23.8594 47.6311C23.7462 47.6301 23.6361 47.6674 23.5469 47.7371L14.0859 54.7176C14.0319 54.7561 13.986 54.8049 13.9511 54.8613C13.9161 54.9178 13.8927 54.9804 13.8823 55.0459C13.8718 55.1115 13.8745 55.1785 13.8902 55.2429C13.9059 55.3074 13.9343 55.3682 13.9737 55.4217C14.0131 55.4751 14.0628 55.52 14.1198 55.554C14.1768 55.588 14.24 55.6105 14.3057 55.6199C14.3714 55.6292 14.4383 55.6252 14.5025 55.6084C14.5667 55.5916 14.627 55.5623 14.6797 55.522L24.1406 48.5379C24.226 48.4767 24.2899 48.3901 24.3234 48.2905C24.3568 48.191 24.3581 48.0835 24.3269 47.9832C24.2958 47.8829 24.2339 47.7948 24.15 47.7317C24.0661 47.6686 23.9644 47.6332 23.8594 47.6311Z" fill="#1188EE"/>
<path fill-rule="evenodd" clip-rule="evenodd" d="M26.5195 49.7522C26.3889 49.7467 26.2613 49.7926 26.1641 49.8801L18.4766 56.5991C18.4246 56.6415 18.3818 56.6937 18.3505 56.7529C18.3192 56.8122 18.3001 56.8773 18.2944 56.9441C18.2887 57.0109 18.2965 57.0779 18.3173 57.1416C18.3381 57.2053 18.3715 57.2642 18.4155 57.3147C18.4595 57.3652 18.5132 57.4067 18.5734 57.436C18.6336 57.4654 18.6991 57.4823 18.766 57.4858C18.833 57.4894 18.8999 57.4796 18.9629 57.4568C19.0259 57.434 19.0837 57.3986 19.1328 57.353L26.8242 50.6343C26.9017 50.5692 26.9577 50.482 26.9847 50.3845C27.0117 50.287 27.0085 50.1838 26.9755 50.0881C26.9424 49.9925 26.8812 49.909 26.7998 49.8489C26.7184 49.7888 26.6207 49.7556 26.5195 49.7522Z" fill="#1188EE"/>
<path fill-rule="evenodd" clip-rule="evenodd" d="M29.7422 52.139C29.6124 52.1461 29.4905 52.2034 29.4023 52.2989L23.7461 58.221C23.7007 58.2684 23.6651 58.3243 23.6413 58.3855C23.6175 58.4468 23.606 58.512 23.6075 58.5777C23.6089 58.6433 23.6233 58.708 23.6498 58.7681C23.6762 58.8282 23.7143 58.8826 23.7617 58.928C23.8092 58.9734 23.8651 59.009 23.9263 59.0328C23.9875 59.0565 24.0528 59.0679 24.1185 59.0665C24.1841 59.065 24.2489 59.0507 24.309 59.0242C24.3691 58.9978 24.4234 58.9599 24.4688 58.9124L30.125 52.9903C30.1963 52.9185 30.2441 52.8269 30.2622 52.7273C30.2802 52.6278 30.2677 52.5252 30.2263 52.4329C30.1848 52.3407 30.1163 52.2633 30.0299 52.2107C29.9435 52.1582 29.8432 52.1333 29.7422 52.139Z" fill="#1188EE"/>
</svg>
