<svg width="143" height="66" viewBox="0 0 143 66" fill="none" xmlns="http://www.w3.org/2000/svg">
<path d="M1 8.39324C1 8.39324 29.9117 -8.24155 36.1388 8.39324C42.3659 25.028 62.3817 -8.73091 70.8328 8.39324C79.2839 25.5174 99.2997 -6.77403 107.306 8.39324C114.109 21.2807 142 8.39324 142 8.39324M1 33.8327C1 33.8327 29.9117 17.1979 36.1388 33.8327C42.3659 50.4675 62.3817 16.7086 70.8328 33.8327C79.2839 50.9569 99.2997 18.6655 107.306 33.8327C114.109 46.7202 142 33.8327 142 33.8327M1 59.2722C1 59.2722 29.9117 42.6374 36.1388 59.2722C42.3659 75.907 62.3817 42.1481 70.8328 59.2722C79.2839 76.3964 99.2997 44.105 107.306 59.2722C114.109 72.1597 142 59.2722 142 59.2722" stroke="#1188EE" stroke-width="2"/>
</svg>
