<svg width="64" height="64" viewBox="0 0 64 64" fill="none" xmlns="http://www.w3.org/2000/svg">
<path fill-rule="evenodd" clip-rule="evenodd" d="M19.5664 16.3695C19.4301 16.3648 19.2943 16.3881 19.1674 16.4378C19.0404 16.4875 18.9249 16.5626 18.8281 16.6585C18.8281 16.6585 15.0119 20.4133 13.1992 22.5609C12.1187 23.8405 10.7892 25.1647 9.9609 26.9359C9.32866 28.2877 8.84012 29.8361 8.8984 31.4593C8.95364 32.9869 9.57292 34.328 10.1484 35.4906C11.0338 37.2794 13.1875 39.8382 13.1875 39.8382C13.2708 39.9398 13.3733 40.0238 13.4892 40.0858C13.6051 40.1478 13.732 40.1864 13.8628 40.1993C13.9936 40.2122 14.1256 40.1991 14.2514 40.161C14.3771 40.1229 14.4941 40.0603 14.5957 39.9769C14.6973 39.8936 14.7814 39.791 14.8434 39.6752C14.9053 39.5593 14.9438 39.4324 14.9567 39.3016C14.9696 39.1708 14.9566 39.0387 14.9184 38.9129C14.8803 38.7872 14.8177 38.6703 14.7343 38.5687C14.7343 38.5687 12.5572 35.8479 11.9414 34.6039C11.3924 33.4949 10.9308 32.3944 10.8945 31.389C10.8528 30.227 11.2248 28.9565 11.7734 27.7835C12.4079 26.4267 13.5794 25.2088 14.7265 23.85C16.154 22.159 18.6574 19.6883 19.4726 18.8773C20.2087 19.7095 22.2125 21.9419 23.25 23.4945C24.26 25.0063 25.2498 26.4641 25.6836 27.9867C26.0988 29.4439 26.2209 31.0328 25.9687 32.4906C25.8088 33.411 25.3712 34.3511 24.8007 35.1937C24.5563 35.5547 23.9126 36.2235 23.3593 36.7367C22.806 37.2497 22.3398 37.6351 22.3398 37.6351C22.2385 37.719 22.1547 37.8221 22.0931 37.9383C22.0316 38.0546 21.9936 38.1819 21.9813 38.3128C21.9689 38.4438 21.9825 38.5758 22.0212 38.7015C22.0599 38.8272 22.123 38.9439 22.2069 39.0453C22.2908 39.1466 22.3938 39.2306 22.5101 39.2921C22.6263 39.3536 22.7536 39.3916 22.8845 39.4039C23.0155 39.4162 23.1476 39.4026 23.2733 39.3639C23.399 39.3251 23.5158 39.262 23.6171 39.1781C23.6171 39.1781 24.1214 38.7553 24.7187 38.2015C25.316 37.6475 26.0006 36.989 26.457 36.3148C27.1446 35.2994 27.7172 34.1247 27.9414 32.8343C28.2528 31.0343 28.0962 29.1661 27.6054 27.4437C27.0495 25.4923 25.9104 23.8804 24.914 22.389C23.4753 20.2358 20.2734 16.7054 20.2734 16.7054C20.1838 16.6055 20.0751 16.5247 19.9536 16.4676C19.8322 16.4106 19.7005 16.3787 19.5664 16.3736V16.3695Z" fill="#1188EE"/>
<path fill-rule="evenodd" clip-rule="evenodd" d="M22.2812 7.99049C19.7084 7.49909 17.3193 8.81809 15.4218 9.86549C13.6505 10.8433 11.9463 12.2048 10.8164 14.01C9.5513 16.0312 9.0494 18.4182 8.89841 20.6624C8.80941 21.9932 9.07571 23.6715 9.34372 25.0921C9.61173 26.5127 9.89841 27.6467 9.89841 27.6467L11.8359 27.1585C11.8359 27.1585 11.5643 26.0762 11.3086 24.721C11.0529 23.3656 10.8335 21.7072 10.8945 20.7952C11.0315 18.7588 11.5008 16.6877 12.5117 15.0725C13.3966 13.6589 14.8375 12.4729 16.3906 11.6155C18.2487 10.5897 20.2655 9.64213 21.9062 9.95533C23.3857 10.2379 24.8711 11.5986 25.8594 13.0686C26.8885 14.5994 27.3687 16.6565 27.3711 18.6077C27.3726 19.9101 26.5012 21.386 26.0703 23.2444C25.8058 24.3856 25.4375 26.5256 25.4375 26.5256L27.4101 26.8655C27.4101 26.8655 27.7896 24.6854 28.0195 23.6936H28.0155C28.3434 22.2796 29.3734 20.6645 29.371 18.6077C29.3682 16.3417 28.8431 13.9202 27.5194 11.9514C26.3509 10.2132 24.599 8.43309 22.2812 7.99049Z" fill="#1188EE"/>
<path fill-rule="evenodd" clip-rule="evenodd" d="M10.5 35.3186C10.5 35.3186 9.33378 41.8347 9.42576 45.4163C9.47583 47.3979 9.21859 49.9031 10.5547 52.0217H10.5508C11.8152 54.0273 13.9752 55.5842 16.3476 56.01C18.5886 56.412 20.8895 55.6325 22.6523 54.4397C24.66 53.0815 26.0997 50.9435 26.8437 48.7131C27.6229 46.3771 27.0541 44.0424 26.9805 42.0842C26.9023 39.9712 26.4453 35.9985 26.4453 35.9985L24.457 36.2251C24.457 36.2251 24.9141 40.2511 24.9844 42.1587C25.0673 44.3811 25.4897 46.4485 24.9453 48.0803C24.3281 49.9307 23.0907 51.7272 21.5351 52.7798C20.1256 53.7334 18.2322 54.3159 16.7031 54.0415C14.9892 53.7341 13.196 52.4619 12.2461 50.9553C11.3858 49.5911 11.4797 47.5001 11.4258 45.3657C11.3474 42.3121 12.4726 35.6626 12.4726 35.6626L10.5 35.3186Z" fill="#1188EE"/>
<path fill-rule="evenodd" clip-rule="evenodd" d="M19.4453 14.1467C19.18 14.1457 18.9253 14.25 18.737 14.4368C18.5487 14.6236 18.4424 14.8776 18.4414 15.1428L18.3984 17.4397C18.3958 17.571 18.419 17.7014 18.4669 17.8237C18.5147 17.9461 18.5861 18.0579 18.6771 18.1526C18.7681 18.2473 18.8769 18.3233 18.9972 18.376C19.1176 18.4287 19.2471 18.4571 19.3784 18.4597C19.5097 18.4624 19.6403 18.4389 19.7626 18.3911C19.8849 18.3433 19.9966 18.2719 20.0914 18.1809C20.1861 18.0899 20.2619 17.9812 20.3146 17.8608C20.3673 17.7405 20.3958 17.6111 20.3984 17.4797L20.4414 15.179C20.4455 15.0454 20.4229 14.9121 20.3748 14.7874C20.3266 14.6627 20.254 14.549 20.1611 14.4529C20.0683 14.3567 19.9571 14.28 19.8341 14.2275C19.7112 14.1751 19.5789 14.1472 19.4453 14.1467Z" fill="#1188EE"/>
<path fill-rule="evenodd" clip-rule="evenodd" d="M44.4492 16.3693C44.3124 16.3723 44.1777 16.4033 44.0534 16.4604C43.9291 16.5175 43.8179 16.5995 43.7265 16.7014C43.7265 16.7014 40.5247 20.2318 39.0859 22.385C38.0895 23.8764 36.9504 25.4882 36.3945 27.4396C35.9037 29.162 35.7471 31.0303 36.0586 32.8303C36.2827 34.1207 36.8554 35.2951 37.5429 36.3105C37.9993 36.9847 38.6839 37.6434 39.2812 38.1975C39.8785 38.7513 40.3828 39.174 40.3828 39.174C40.4841 39.2579 40.6009 39.3211 40.7266 39.3598C40.8523 39.3985 40.9844 39.4119 41.1154 39.3996C41.2464 39.3873 41.3736 39.3493 41.4899 39.2878C41.6061 39.2263 41.7091 39.1425 41.793 39.0412C41.8769 38.9399 41.94 38.8229 41.9787 38.6972C42.0174 38.5715 42.031 38.4395 42.0187 38.3085C42.0063 38.1776 41.9683 38.0503 41.9068 37.934C41.8453 37.8178 41.7615 37.7149 41.6601 37.631C41.6601 37.631 41.1939 37.2456 40.6406 36.7326C40.0873 36.2194 39.4436 35.5506 39.1992 35.1896C38.6288 34.347 38.1911 33.4067 38.0312 32.4863C37.779 31.0285 37.9011 29.4398 38.3164 27.9826C38.7501 26.46 39.74 25.0022 40.75 23.4904C41.7874 21.9378 43.7912 19.7054 44.5273 18.8732C45.3426 19.6842 47.8459 22.1549 49.2734 23.8459C50.4206 25.2047 51.592 26.4227 52.2265 27.7795C52.7751 28.9525 53.1472 30.2227 53.1054 31.3847C53.0691 32.3901 52.6075 33.4908 52.0586 34.5998C51.4427 35.8438 49.2656 38.5646 49.2656 38.5646C49.1822 38.6662 49.1197 38.7831 49.0815 38.9089C49.0434 39.0346 49.0304 39.1665 49.0433 39.2973C49.0562 39.4281 49.0947 39.5552 49.1566 39.6711C49.2185 39.787 49.3027 39.8895 49.4043 39.9728C49.5059 40.0562 49.6229 40.1185 49.7486 40.1567C49.8743 40.1948 50.0064 40.2079 50.1371 40.195C50.2679 40.1821 50.3948 40.1437 50.5107 40.0817C50.6266 40.0198 50.7291 39.9355 50.8125 39.8339C50.8125 39.8339 52.9661 37.2751 53.8515 35.4863C54.427 34.3237 55.0463 32.9829 55.1015 31.4553C55.1598 29.8321 54.6713 28.2836 54.039 26.9318C53.2107 25.1606 51.8812 23.8364 50.8007 22.5568C48.988 20.4092 45.1718 16.6545 45.1718 16.6545C45.0768 16.5605 44.9639 16.4863 44.8398 16.4367C44.7157 16.3871 44.5828 16.3628 44.4492 16.3654V16.3693Z" fill="#1188EE"/>
<path fill-rule="evenodd" clip-rule="evenodd" d="M41.7188 7.99049C39.401 8.43309 37.649 10.2132 36.4805 11.9514C35.1568 13.9202 34.6317 16.3417 34.6289 18.6077C34.6265 20.6645 35.6565 22.2796 35.9844 23.6936H35.9804C36.2103 24.6854 36.5898 26.8655 36.5898 26.8655L38.5624 26.5256C38.5624 26.5256 38.1941 24.3856 37.9296 23.2444C37.4987 21.386 36.6273 19.9101 36.6288 18.6077C36.6312 16.6565 37.1114 14.5994 38.1405 13.0686C39.1288 11.5986 40.6142 10.2379 42.0937 9.95533C43.7344 9.64213 45.7511 10.5897 47.6093 11.6155C49.1624 12.4729 50.6033 13.6589 51.4882 15.0725C52.4991 16.6877 52.9684 18.7588 53.1054 20.7952C53.1664 21.7072 52.947 23.3656 52.6913 24.721C52.4356 26.0762 52.164 27.1585 52.164 27.1585L54.1015 27.6467C54.1015 27.6467 54.3882 26.5127 54.6562 25.0921C54.9242 23.6715 55.1905 21.9932 55.1015 20.6624C54.9505 18.4182 54.4486 16.0312 53.1835 14.01C52.0536 12.2048 50.3493 10.8433 48.578 9.86549C46.6806 8.81809 44.2916 7.49909 41.7188 7.99049Z" fill="#1188EE"/>
<path fill-rule="evenodd" clip-rule="evenodd" d="M53.4999 35.3186L51.5273 35.6624C51.5273 35.6624 52.6526 42.3119 52.5742 45.3655C52.5202 47.4999 52.6142 49.5911 51.7539 50.9553C50.8039 52.4619 49.0108 53.7339 47.2968 54.0413C45.7678 54.3157 43.8743 53.7331 42.4648 52.7795C40.9093 51.7269 39.6718 49.9307 39.0546 48.0803C38.5103 46.4485 38.9327 44.3808 39.0156 42.1584C39.0858 40.2508 39.5429 36.2249 39.5429 36.2249L37.5546 35.9983C37.5546 35.9983 37.0972 39.9759 37.0195 42.0881C36.9458 44.0463 36.377 46.381 37.1562 48.717C37.9002 50.9474 39.3399 53.0852 41.3476 54.4434C43.1105 55.6362 45.4113 56.4159 47.6523 56.0139C50.0248 55.5881 52.1847 54.031 53.4492 52.0254H53.4452C54.7812 49.9068 54.524 47.4015 54.5741 45.4199C54.6661 41.8383 53.4999 35.3225 53.4999 35.3225L53.4999 35.3186Z" fill="#1188EE"/>
<path fill-rule="evenodd" clip-rule="evenodd" d="M44.5234 14.1466C44.2588 14.1558 44.0087 14.2694 43.8278 14.4628C43.6469 14.6561 43.5501 14.9132 43.5586 15.1779L43.6015 17.4786C43.6068 17.7439 43.7173 17.9963 43.9085 18.1801C44.0998 18.3638 44.3563 18.4639 44.6215 18.4586C44.8867 18.4533 45.139 18.343 45.3228 18.1517C45.5065 17.9604 45.6068 17.7038 45.6015 17.4386L45.5586 15.142C45.5581 15.008 45.5307 14.8753 45.4781 14.7521C45.4254 14.6289 45.3485 14.5176 45.2519 14.4247C45.1554 14.3318 45.0411 14.2592 44.916 14.2113C44.7908 14.1634 44.6573 14.1419 44.5234 14.1466Z" fill="#1188EE"/>
<path fill-rule="evenodd" clip-rule="evenodd" d="M14.0312 40.2913C13.9189 40.2965 13.8115 40.3395 13.7266 40.4133L10.1914 43.417C10.0904 43.503 10.0277 43.6256 10.0171 43.7578C10.0064 43.89 10.0488 44.0211 10.1347 44.1221C10.2207 44.2231 10.3433 44.286 10.4756 44.2966C10.6078 44.3073 10.7388 44.2649 10.8398 44.179L14.375 41.1748C14.4551 41.1076 14.5122 41.0171 14.5382 40.9158C14.5642 40.8145 14.5577 40.7076 14.5198 40.6101C14.4818 40.5127 14.4143 40.4296 14.3267 40.3726C14.239 40.3155 14.1357 40.2865 14.0312 40.2913Z" fill="#1188EE"/>
<path fill-rule="evenodd" clip-rule="evenodd" d="M14.7422 41.8811C14.6122 41.8851 14.4889 41.9395 14.3984 42.033L9.98047 46.5408C9.93319 46.5874 9.89567 46.643 9.87011 46.7043C9.84455 46.7657 9.83146 46.8315 9.83161 46.898C9.83175 46.9644 9.84512 47.0301 9.87094 47.0913C9.89676 47.1525 9.93452 47.208 9.982 47.2544C10.0295 47.3008 10.0857 47.3374 10.1475 47.3618C10.2092 47.3863 10.2752 47.3981 10.3416 47.3967C10.408 47.3954 10.4735 47.3809 10.5342 47.354C10.595 47.3271 10.6497 47.2883 10.6953 47.24L15.1133 42.7322C15.1836 42.6611 15.2311 42.5705 15.2495 42.4722C15.2678 42.3738 15.2563 42.2724 15.2163 42.1807C15.1764 42.089 15.1098 42.0115 15.0253 41.958C14.9408 41.9045 14.8422 41.878 14.7422 41.8811Z" fill="#1188EE"/>
<path fill-rule="evenodd" clip-rule="evenodd" d="M15.4258 44.0022C15.2976 44.0134 15.1787 44.0735 15.0937 44.1701L10.4961 49.2991C10.4075 49.398 10.3619 49.528 10.3692 49.6606C10.3766 49.7932 10.4363 49.9175 10.5352 50.0061C10.6341 50.0947 10.7642 50.1401 10.8968 50.1328C11.0293 50.1255 11.1536 50.0659 11.2422 49.967L15.8359 44.8381C15.9037 44.7639 15.9476 44.671 15.9619 44.5715C15.9761 44.472 15.9601 44.3705 15.9158 44.2803C15.8715 44.19 15.8011 44.1153 15.7137 44.0657C15.6263 44.0161 15.5259 43.9939 15.4258 44.0022Z" fill="#1188EE"/>
<path fill-rule="evenodd" clip-rule="evenodd" d="M16.1289 46.1232C15.9995 46.1365 15.8805 46.1996 15.7969 46.2992L11.4648 51.2485C11.4193 51.2976 11.3841 51.3552 11.3613 51.4181C11.3386 51.4811 11.3287 51.548 11.3323 51.6149C11.3358 51.6818 11.3528 51.7473 11.3822 51.8075C11.4116 51.8677 11.4527 51.9215 11.5032 51.9655C11.5537 52.0095 11.6126 52.0428 11.6762 52.0636C11.7399 52.0845 11.8071 52.0922 11.8738 52.0866C11.9406 52.0809 12.0055 52.0619 12.0647 52.0307C12.124 51.9995 12.1764 51.9566 12.2187 51.9047L16.5469 46.9552C16.614 46.8804 16.6571 46.7873 16.6704 46.6877C16.6837 46.588 16.6667 46.4867 16.6216 46.3969C16.5765 46.3071 16.5053 46.2328 16.4174 46.184C16.3296 46.1352 16.229 46.114 16.1289 46.1232Z" fill="#1188EE"/>
<path fill-rule="evenodd" clip-rule="evenodd" d="M16.9375 47.5373C16.8646 47.542 16.7935 47.5625 16.7294 47.5976C16.6653 47.6327 16.6097 47.6815 16.5664 47.7404L12.8555 52.6896C12.816 52.7422 12.7872 52.802 12.7708 52.8657C12.7545 52.9294 12.7508 52.9956 12.76 53.0607C12.7693 53.1258 12.7913 53.1884 12.8247 53.2451C12.8582 53.3017 12.9025 53.3513 12.9551 53.3908C13.0076 53.4303 13.0675 53.4589 13.1312 53.4753C13.1949 53.4917 13.2612 53.4955 13.3263 53.4863C13.3914 53.477 13.454 53.455 13.5107 53.4216C13.5673 53.3881 13.6167 53.3438 13.6562 53.2912L17.3672 48.342C17.4261 48.2657 17.4617 48.1741 17.4698 48.0781C17.4778 47.982 17.458 47.8857 17.4126 47.8007C17.3672 47.7157 17.2982 47.6455 17.2139 47.5988C17.1296 47.5521 17.0336 47.5307 16.9375 47.5373Z" fill="#1188EE"/>
<path fill-rule="evenodd" clip-rule="evenodd" d="M17.9062 49.5686C17.8336 49.5743 17.7632 49.5958 17.6997 49.6316C17.6363 49.6674 17.5815 49.7165 17.539 49.7756L14.5312 53.842C14.4915 53.8948 14.4627 53.9551 14.4464 54.019C14.43 54.083 14.4266 54.1495 14.4361 54.2148C14.4457 54.2802 14.4681 54.343 14.502 54.3997C14.536 54.4563 14.5808 54.5057 14.634 54.5449C14.6871 54.5841 14.7475 54.6124 14.8116 54.6282C14.8758 54.6439 14.9424 54.6469 15.0077 54.6367C15.0729 54.6266 15.1355 54.6036 15.1919 54.5691C15.2482 54.5346 15.2971 54.4893 15.3359 54.4358L18.3398 50.3694C18.3978 50.2928 18.4325 50.2012 18.4398 50.1055C18.4471 50.0097 18.4267 49.9138 18.381 49.8294C18.3352 49.7449 18.2661 49.6754 18.1819 49.6292C18.0977 49.5829 18.002 49.5619 17.9062 49.5686Z" fill="#1188EE"/>
<path fill-rule="evenodd" clip-rule="evenodd" d="M18.7929 51.5138C18.7031 51.5196 18.6165 51.5493 18.5422 51.6002C18.468 51.6511 18.4088 51.7212 18.3711 51.8029L17.2226 54.1896C17.1652 54.3092 17.1576 54.4467 17.2015 54.5719C17.2455 54.6972 17.3374 54.7998 17.457 54.8573C17.5767 54.9148 17.7143 54.9225 17.8395 54.8786C17.9648 54.8346 18.0675 54.7428 18.125 54.6232L19.2734 52.2365C19.3128 52.1577 19.3308 52.07 19.3254 51.9821C19.32 51.8942 19.2915 51.8091 19.2427 51.7357C19.1939 51.6624 19.1267 51.6034 19.0477 51.5643C18.9687 51.5253 18.8808 51.5079 18.7929 51.5138Z" fill="#1188EE"/>
<path fill-rule="evenodd" clip-rule="evenodd" d="M15.4101 13.0216C15.2802 13.0257 15.1568 13.08 15.0664 13.1735L10.0039 18.1735C9.95589 18.2194 9.91751 18.2743 9.89097 18.3351C9.86444 18.396 9.85029 18.4616 9.84935 18.528C9.84842 18.5944 9.8607 18.6602 9.88551 18.7218C9.91031 18.7834 9.94712 18.8394 9.9938 18.8866C10.0405 18.9338 10.0961 18.9712 10.1574 18.9967C10.2187 19.0222 10.2845 19.0353 10.3509 19.0351C10.4172 19.0349 10.4829 19.0216 10.5441 18.9958C10.6052 18.9699 10.6606 18.9319 10.707 18.8844L15.7656 13.8844C15.8391 13.815 15.8899 13.725 15.9111 13.6261C15.9324 13.5272 15.9231 13.4242 15.8846 13.3307C15.8461 13.2372 15.7801 13.1575 15.6954 13.1022C15.6107 13.0469 15.5113 13.0192 15.4101 13.0216Z" fill="#1188EE"/>
<path fill-rule="evenodd" clip-rule="evenodd" d="M15.375 15.5217C15.3025 15.5194 15.2303 15.5327 15.1635 15.5611C15.0968 15.5894 15.0369 15.6318 14.9882 15.6856L9.73824 21.3106C9.69334 21.3585 9.65833 21.4148 9.63521 21.4763C9.61209 21.5378 9.60131 21.6033 9.60348 21.669C9.60566 21.7346 9.62074 21.7993 9.64788 21.8592C9.67501 21.919 9.71367 21.973 9.76163 22.0178C9.8096 22.0627 9.86594 22.0975 9.92743 22.1206C9.98893 22.1437 10.0544 22.1545 10.12 22.1524C10.1857 22.1502 10.2503 22.1351 10.3101 22.1079C10.3699 22.0808 10.4238 22.0421 10.4687 21.9942L15.7187 16.3692C15.7861 16.2995 15.8318 16.2121 15.8503 16.117C15.8688 16.0219 15.8592 15.9233 15.8228 15.8335C15.7864 15.7437 15.7247 15.6665 15.6452 15.6111C15.5657 15.5557 15.4718 15.5248 15.375 15.5217Z" fill="#1188EE"/>
<path fill-rule="evenodd" clip-rule="evenodd" d="M15.3594 18.3342C15.2291 18.3351 15.1044 18.3868 15.0117 18.4783L10.4492 22.7905C10.396 22.8339 10.3524 22.888 10.3209 22.949C10.2895 23.01 10.2709 23.0768 10.2664 23.1453C10.2619 23.2137 10.2715 23.2823 10.2947 23.3469C10.3179 23.4115 10.3541 23.4708 10.4012 23.5208C10.4482 23.5707 10.505 23.6104 10.5681 23.6375C10.6311 23.6645 10.6991 23.6783 10.7677 23.678C10.8364 23.6777 10.9042 23.6634 10.967 23.6357C11.0298 23.6081 11.0862 23.5678 11.1328 23.5173L15.6953 19.2046C15.7703 19.1368 15.823 19.0478 15.8464 18.9495C15.8698 18.8511 15.8629 18.7481 15.8265 18.6538C15.7901 18.5595 15.726 18.4783 15.6426 18.4211C15.5592 18.364 15.4605 18.3341 15.3594 18.3342Z" fill="#1188EE"/>
<path fill-rule="evenodd" clip-rule="evenodd" d="M41.4062 40.2913C41.2938 40.2965 41.1865 40.3395 41.1015 40.4133L37.5664 43.417C37.4653 43.503 37.4026 43.6256 37.392 43.7578C37.3814 43.89 37.4237 44.021 37.5097 44.1221C37.5957 44.2231 37.7183 44.286 37.8505 44.2966C37.9827 44.3073 38.1138 44.2649 38.2148 44.179L41.75 41.1748C41.8301 41.1076 41.8872 41.0171 41.9132 40.9158C41.9391 40.8145 41.9327 40.7076 41.8947 40.6101C41.8568 40.5127 41.7893 40.4296 41.7016 40.3726C41.614 40.3155 41.5107 40.2865 41.4062 40.2913Z" fill="#1188EE"/>
<path fill-rule="evenodd" clip-rule="evenodd" d="M42.1172 41.8811C41.9872 41.8851 41.8639 41.9395 41.7734 42.033L37.3555 46.5408C37.3082 46.5874 37.2707 46.643 37.2451 46.7043C37.2196 46.7657 37.2065 46.8315 37.2066 46.898C37.2067 46.9644 37.2201 47.0301 37.2459 47.0913C37.2718 47.1525 37.3095 47.208 37.357 47.2544C37.4045 47.3008 37.4607 47.3374 37.5225 47.3618C37.5842 47.3863 37.6502 47.3981 37.7166 47.3967C37.783 47.3954 37.8485 47.3809 37.9092 47.354C37.97 47.3271 38.0247 47.2883 38.0703 47.24L42.4883 42.7322C42.5586 42.6611 42.6061 42.5705 42.6244 42.4722C42.6428 42.3738 42.6313 42.2724 42.5913 42.1807C42.5514 42.089 42.4848 42.0115 42.4003 41.958C42.3158 41.9045 42.2172 41.878 42.1172 41.8811Z" fill="#1188EE"/>
<path fill-rule="evenodd" clip-rule="evenodd" d="M42.8008 44.0022C42.6726 44.0134 42.5537 44.0735 42.4687 44.1701L37.8711 49.2991C37.8272 49.348 37.7934 49.4052 37.7717 49.4673C37.7499 49.5293 37.7405 49.595 37.7442 49.6606C37.7515 49.7932 37.8112 49.9175 37.9101 50.0061C38.0091 50.0947 38.1391 50.1404 38.2717 50.133C38.4043 50.1257 38.5286 50.066 38.6172 49.967L43.2109 44.8381C43.2787 44.7639 43.3226 44.671 43.3369 44.5715C43.3511 44.472 43.3351 44.3705 43.2908 44.2803C43.2465 44.19 43.1761 44.1153 43.0887 44.0657C43.0013 44.0161 42.9009 43.9939 42.8008 44.0022Z" fill="#1188EE"/>
<path fill-rule="evenodd" clip-rule="evenodd" d="M43.5039 46.1232C43.3746 46.1365 43.2555 46.1996 43.1719 46.2992L38.8398 51.2485C38.7943 51.2976 38.7591 51.3552 38.7363 51.4181C38.7136 51.4811 38.7037 51.548 38.7073 51.6149C38.7108 51.6818 38.7278 51.7473 38.7572 51.8075C38.7866 51.8677 38.8277 51.9215 38.8782 51.9655C38.9287 52.0095 38.9876 52.0428 39.0512 52.0636C39.1149 52.0845 39.1821 52.0922 39.2488 52.0866C39.3156 52.0809 39.3805 52.0619 39.4397 52.0307C39.499 51.9995 39.5514 51.9566 39.5937 51.9047L43.9219 46.9552C43.989 46.8804 44.0321 46.7873 44.0454 46.6877C44.0587 46.588 44.0417 46.4867 43.9966 46.3969C43.9515 46.3071 43.8803 46.2328 43.7924 46.184C43.7046 46.1352 43.604 46.114 43.5039 46.1232Z" fill="#1188EE"/>
<path fill-rule="evenodd" clip-rule="evenodd" d="M44.3125 47.5373C44.2396 47.542 44.1685 47.5625 44.1044 47.5976C44.0403 47.6327 43.9847 47.6815 43.9414 47.7404L40.2305 52.6896C40.191 52.7422 40.1622 52.802 40.1458 52.8657C40.1295 52.9294 40.1258 52.9956 40.135 53.0607C40.1443 53.1258 40.1663 53.1884 40.1997 53.2451C40.2332 53.3017 40.2775 53.3513 40.3301 53.3908C40.3826 53.4303 40.4425 53.4589 40.5062 53.4753C40.5699 53.4917 40.6362 53.4955 40.7013 53.4863C40.7664 53.477 40.829 53.455 40.8857 53.4216C40.9423 53.3881 40.9917 53.3438 41.0313 53.2912L44.7422 48.342C44.8011 48.2657 44.8367 48.1741 44.8448 48.0781C44.8528 47.982 44.833 47.8857 44.7876 47.8007C44.7422 47.7157 44.6732 47.6455 44.5889 47.5988C44.5046 47.5521 44.4086 47.5307 44.3125 47.5373Z" fill="#1188EE"/>
<path fill-rule="evenodd" clip-rule="evenodd" d="M45.2812 49.5686C45.2087 49.5743 45.1382 49.5958 45.0748 49.6316C45.0114 49.6674 44.9565 49.7165 44.9141 49.7756L41.9062 53.842C41.8666 53.8948 41.8377 53.9551 41.8214 54.019C41.8051 54.083 41.8016 54.1495 41.8112 54.2148C41.8207 54.2802 41.8431 54.343 41.8771 54.3997C41.9111 54.4563 41.9559 54.5057 42.009 54.5449C42.0622 54.5841 42.1226 54.6124 42.1867 54.6282C42.2508 54.6439 42.3175 54.6469 42.3827 54.6367C42.448 54.6266 42.5106 54.6036 42.5669 54.5691C42.6232 54.5346 42.6722 54.4893 42.7109 54.4358L45.7148 50.3694C45.7728 50.2928 45.8076 50.2012 45.8149 50.1055C45.8222 50.0097 45.8017 49.9138 45.756 49.8294C45.7103 49.7449 45.6412 49.6754 45.557 49.6292C45.4728 49.5829 45.3771 49.5619 45.2812 49.5686Z" fill="#1188EE"/>
<path fill-rule="evenodd" clip-rule="evenodd" d="M46.1679 51.5138C46.0781 51.5196 45.9915 51.5493 45.9172 51.6002C45.8429 51.6511 45.7838 51.7212 45.746 51.8029L44.5976 54.1896C44.5691 54.2488 44.5526 54.3132 44.549 54.3788C44.5454 54.4444 44.5547 54.5101 44.5764 54.5722C44.6204 54.6974 44.7123 54.8001 44.832 54.8576C44.9516 54.9151 45.0892 54.9225 45.2145 54.8786C45.3398 54.8346 45.4424 54.7428 45.4999 54.6232L46.6484 52.2365C46.6878 52.1577 46.7057 52.07 46.7004 51.9821C46.695 51.8942 46.6664 51.8091 46.6177 51.7357C46.5689 51.6624 46.5016 51.6034 46.4227 51.5643C46.3437 51.5253 46.2558 51.5079 46.1679 51.5138Z" fill="#1188EE"/>
</svg>
