<svg width="48" height="50" viewBox="0 0 48 50" fill="none" xmlns="http://www.w3.org/2000/svg">
<path fill-rule="evenodd" clip-rule="evenodd" d="M11.5664 9.36949C11.4301 9.36479 11.2943 9.38815 11.1674 9.43785C11.0404 9.48755 10.9249 9.5626 10.8281 9.65855C10.8281 9.65855 7.01192 13.4133 5.19918 15.5609C4.11874 16.8405 2.7892 18.1647 1.9609 19.9359C1.32866 21.2877 0.840118 22.8361 0.898398 24.4593C0.953642 25.9869 1.57292 27.328 2.1484 28.4906C3.03378 30.2794 5.18746 32.8382 5.18746 32.8382C5.2708 32.9398 5.37334 33.0238 5.48922 33.0858C5.6051 33.1478 5.73205 33.1864 5.86281 33.1993C5.99358 33.2122 6.12561 33.1991 6.25136 33.161C6.3771 33.1229 6.49411 33.0603 6.59569 32.9769C6.69726 32.8936 6.78143 32.791 6.84337 32.6752C6.90531 32.5593 6.94382 32.4324 6.9567 32.3016C6.96957 32.1708 6.95656 32.0387 6.91841 31.9129C6.88026 31.7872 6.81771 31.6703 6.73434 31.5687C6.73434 31.5687 4.55718 28.8479 3.94137 27.6039C3.39244 26.4949 2.93085 25.3944 2.89449 24.389C2.85277 23.227 3.22483 21.9565 3.7734 20.7835C4.40789 19.4267 5.57936 18.2088 6.72652 16.85C8.15401 15.159 10.6574 12.6883 11.4726 11.8773C12.2087 12.7095 14.2125 14.9419 15.25 16.4945C16.26 18.0063 17.2498 19.4641 17.6836 20.9867C18.0988 22.4439 18.2209 24.0328 17.9687 25.4906C17.8088 26.411 17.3712 27.3511 16.8007 28.1937C16.5563 28.5547 15.9126 29.2235 15.3593 29.7367C14.806 30.2497 14.3398 30.6351 14.3398 30.6351C14.2385 30.719 14.1547 30.8221 14.0931 30.9383C14.0316 31.0546 13.9936 31.1819 13.9813 31.3128C13.9689 31.4438 13.9825 31.5758 14.0212 31.7015C14.0599 31.8272 14.123 31.9439 14.2069 32.0453C14.2908 32.1466 14.3938 32.2306 14.5101 32.2921C14.6263 32.3536 14.7536 32.3916 14.8845 32.4039C15.0155 32.4162 15.1476 32.4026 15.2733 32.3639C15.399 32.3251 15.5158 32.262 15.6171 32.1781C15.6171 32.1781 16.1214 31.7553 16.7187 31.2015C17.316 30.6475 18.0006 29.989 18.457 29.3148C19.1446 28.2994 19.7172 27.1247 19.9414 25.8343C20.2528 24.0343 20.0962 22.1661 19.6054 20.4437C19.0495 18.4923 17.9104 16.8804 16.914 15.389C15.4753 13.2358 12.2734 9.70542 12.2734 9.70542C12.1838 9.60548 12.0751 9.52467 11.9536 9.46763C11.8322 9.41059 11.7005 9.37871 11.5664 9.37364V9.36949Z" fill="#1188EE"/>
<path fill-rule="evenodd" clip-rule="evenodd" d="M14.2812 0.990488C11.7084 0.499088 9.3193 1.81809 7.42185 2.86549C5.65054 3.84329 3.94627 5.20482 2.81638 7.01002C1.5513 9.03122 1.0494 11.4182 0.898412 13.6624C0.809406 14.9932 1.07571 16.6715 1.34372 18.0921C1.61173 19.5127 1.89841 20.6467 1.89841 20.6467L3.83591 20.1585C3.83591 20.1585 3.56426 19.0762 3.30857 17.721C3.05288 16.3656 2.83351 14.7072 2.89451 13.7952C3.03151 11.7588 3.50077 9.68772 4.51169 8.07252C5.39661 6.65892 6.83751 5.47289 8.3906 4.61549C10.2487 3.58969 12.2655 2.64213 13.9062 2.95533C15.3857 3.23793 16.8711 4.59861 17.8594 6.06861C18.8885 7.59941 19.3687 9.65648 19.3711 11.6077C19.3726 12.9101 18.5012 14.386 18.0703 16.2444C17.8058 17.3856 17.4375 19.5256 17.4375 19.5256L19.4101 19.8655C19.4101 19.8655 19.7896 17.6854 20.0195 16.6936H20.0155C20.3434 15.2796 21.3734 13.6645 21.371 11.6077C21.3682 9.34168 20.8431 6.92023 19.5194 4.95143C18.3509 3.21323 16.599 1.43309 14.2812 0.990488Z" fill="#1188EE"/>
<path fill-rule="evenodd" clip-rule="evenodd" d="M2.49998 28.3186C2.49998 28.3186 1.33378 34.8347 1.42576 38.4163C1.47583 40.3979 1.21859 42.9031 2.55467 45.0217H2.55077C3.81523 47.0273 5.97519 48.5842 8.34764 49.01C10.5886 49.412 12.8895 48.6325 14.6523 47.4397C16.66 46.0815 18.0997 43.9435 18.8437 41.7131C19.6229 39.3771 19.0541 37.0424 18.9805 35.0842C18.9023 32.9712 18.4453 28.9985 18.4453 28.9985L16.457 29.2251C16.457 29.2251 16.9141 33.2511 16.9844 35.1587C17.0673 37.3811 17.4897 39.4485 16.9453 41.0803C16.3281 42.9307 15.0907 44.7272 13.5351 45.7798C12.1256 46.7334 10.2322 47.3159 8.70312 47.0415C6.98917 46.7341 5.19603 45.4619 4.24609 43.9553C3.38576 42.5911 3.4797 40.5001 3.42577 38.3657C3.34735 35.3121 4.47265 28.6626 4.47265 28.6626L2.49998 28.3186Z" fill="#1188EE"/>
<path fill-rule="evenodd" clip-rule="evenodd" d="M11.4453 7.14674C11.18 7.14572 10.9253 7.24995 10.737 7.43677C10.5487 7.6236 10.4424 7.8776 10.4414 8.14283L10.3984 10.4397C10.3958 10.571 10.419 10.7014 10.4669 10.8237C10.5147 10.9461 10.5861 11.0579 10.6771 11.1526C10.7681 11.2473 10.8769 11.3233 10.9972 11.376C11.1176 11.4287 11.2471 11.4571 11.3784 11.4597C11.5097 11.4624 11.6403 11.4389 11.7626 11.3911C11.8849 11.3433 11.9966 11.2719 12.0914 11.1809C12.1861 11.0899 12.2619 10.9812 12.3146 10.8608C12.3673 10.7405 12.3958 10.6111 12.3984 10.4797L12.4414 8.17896C12.4455 8.04535 12.4229 7.91207 12.3748 7.78736C12.3266 7.66265 12.254 7.54904 12.1611 7.45289C12.0683 7.35673 11.9571 7.27999 11.8341 7.22755C11.7112 7.1751 11.5789 7.14721 11.4453 7.14674Z" fill="#1188EE"/>
<path fill-rule="evenodd" clip-rule="evenodd" d="M36.4492 9.36933C36.3124 9.3723 36.1777 9.40329 36.0534 9.46039C35.9291 9.5175 35.8179 9.59954 35.7265 9.70136C35.7265 9.70136 32.5247 13.2318 31.0859 15.385C30.0895 16.8764 28.9504 18.4882 28.3945 20.4396C27.9037 22.162 27.7471 24.0303 28.0586 25.8303C28.2827 27.1207 28.8554 28.2951 29.5429 29.3105C29.9993 29.9847 30.6839 30.6434 31.2812 31.1975C31.8785 31.7513 32.3828 32.174 32.3828 32.174C32.4841 32.2579 32.6009 32.3211 32.7266 32.3598C32.8523 32.3985 32.9844 32.4119 33.1154 32.3996C33.2464 32.3873 33.3736 32.3493 33.4899 32.2878C33.6061 32.2263 33.7091 32.1425 33.793 32.0412C33.8769 31.9399 33.94 31.8229 33.9787 31.6972C34.0174 31.5715 34.031 31.4395 34.0187 31.3085C34.0063 31.1776 33.9683 31.0503 33.9068 30.934C33.8453 30.8178 33.7615 30.7149 33.6601 30.631C33.6601 30.631 33.1939 30.2456 32.6406 29.7326C32.0873 29.2194 31.4436 28.5506 31.1992 28.1896C30.6288 27.347 30.1911 26.4067 30.0312 25.4863C29.779 24.0285 29.9011 22.4398 30.3164 20.9826C30.7501 19.46 31.74 18.0022 32.75 16.4904C33.7874 14.9378 35.7912 12.7054 36.5273 11.8732C37.3426 12.6842 39.8459 15.1549 41.2734 16.8459C42.4206 18.2047 43.592 19.4227 44.2265 20.7795C44.7751 21.9525 45.1472 23.2227 45.1054 24.3847C45.0691 25.3901 44.6075 26.4908 44.0586 27.5998C43.4427 28.8438 41.2656 31.5646 41.2656 31.5646C41.1822 31.6662 41.1197 31.7831 41.0815 31.9089C41.0434 32.0346 41.0304 32.1665 41.0433 32.2973C41.0562 32.4281 41.0947 32.5552 41.1566 32.6711C41.2185 32.787 41.3027 32.8895 41.4043 32.9728C41.5059 33.0562 41.6229 33.1185 41.7486 33.1567C41.8743 33.1948 42.0064 33.2079 42.1371 33.195C42.2679 33.1821 42.3948 33.1437 42.5107 33.0817C42.6266 33.0198 42.7291 32.9355 42.8125 32.8339C42.8125 32.8339 44.9661 30.2751 45.8515 28.4863C46.427 27.3237 47.0463 25.9829 47.1015 24.4553C47.1598 22.8321 46.6713 21.2836 46.039 19.9318C45.2107 18.1606 43.8812 16.8364 42.8007 15.5568C40.988 13.4092 37.1718 9.65448 37.1718 9.65448C37.0768 9.56046 36.9639 9.48635 36.8398 9.43671C36.7157 9.38707 36.5828 9.36285 36.4492 9.36542V9.36933Z" fill="#1188EE"/>
<path fill-rule="evenodd" clip-rule="evenodd" d="M33.7188 0.990488C31.401 1.43309 29.649 3.21323 28.4805 4.95143C27.1568 6.92023 26.6317 9.34168 26.6289 11.6077C26.6265 13.6645 27.6565 15.2796 27.9844 16.6936H27.9804C28.2103 17.6854 28.5898 19.8655 28.5898 19.8655L30.5624 19.5256C30.5624 19.5256 30.1941 17.3856 29.9296 16.2444C29.4987 14.386 28.6273 12.9101 28.6288 11.6077C28.6312 9.65648 29.1114 7.59941 30.1405 6.06861C31.1288 4.59861 32.6142 3.23793 34.0937 2.95533C35.7344 2.64213 37.7511 3.58969 39.6093 4.61549C41.1624 5.47289 42.6033 6.65892 43.4882 8.07252C44.4991 9.68772 44.9684 11.7588 45.1054 13.7952C45.1664 14.7072 44.947 16.3656 44.6913 17.721C44.4356 19.0762 44.164 20.1585 44.164 20.1585L46.1015 20.6467C46.1015 20.6467 46.3882 19.5127 46.6562 18.0921C46.9242 16.6715 47.1905 14.9932 47.1015 13.6624C46.9505 11.4182 46.4486 9.03122 45.1835 7.01002C44.0536 5.20482 42.3493 3.84329 40.578 2.86549C38.6806 1.81809 36.2916 0.499088 33.7188 0.990488Z" fill="#1188EE"/>
<path fill-rule="evenodd" clip-rule="evenodd" d="M45.4999 28.3186L43.5273 28.6624C43.5273 28.6624 44.6526 35.3119 44.5742 38.3655C44.5202 40.4999 44.6142 42.5911 43.7539 43.9553C42.8039 45.4619 41.0108 46.7339 39.2968 47.0413C37.7678 47.3157 35.8743 46.7331 34.4648 45.7795C32.9093 44.7269 31.6718 42.9307 31.0546 41.0803C30.5103 39.4485 30.9327 37.3808 31.0156 35.1584C31.0858 33.2508 31.5429 29.2249 31.5429 29.2249L29.5546 28.9983C29.5546 28.9983 29.0972 32.9759 29.0195 35.0881C28.9458 37.0463 28.377 39.381 29.1562 41.717C29.9002 43.9474 31.3399 46.0852 33.3476 47.4434C35.1105 48.6362 37.4113 49.4159 39.6523 49.0139C42.0248 48.5881 44.1847 47.031 45.4492 45.0254H45.4452C46.7812 42.9068 46.524 40.4015 46.5741 38.4199C46.6661 34.8383 45.4999 28.3225 45.4999 28.3225L45.4999 28.3186Z" fill="#1188EE"/>
<path fill-rule="evenodd" clip-rule="evenodd" d="M36.5234 7.14661C36.2588 7.15581 36.0087 7.26943 35.8278 7.46277C35.6469 7.65611 35.5501 7.91324 35.5586 8.17786L35.6015 10.4786C35.6068 10.7439 35.7173 10.9963 35.9085 11.1801C36.0998 11.3638 36.3563 11.4639 36.6215 11.4586C36.8867 11.4533 37.139 11.343 37.3228 11.1517C37.5065 10.9604 37.6068 10.7038 37.6015 10.4386L37.5586 8.14197C37.5581 8.00796 37.5307 7.8753 37.4781 7.75208C37.4254 7.62885 37.3485 7.51761 37.2519 7.42468C37.1554 7.33176 37.0411 7.25921 36.916 7.2113C36.7908 7.1634 36.6573 7.14191 36.5234 7.14661Z" fill="#1188EE"/>
<path fill-rule="evenodd" clip-rule="evenodd" d="M6.03125 33.2913C5.91885 33.2965 5.81151 33.3395 5.72656 33.4133L2.19141 36.417C2.09039 36.503 2.02768 36.6256 2.01705 36.7578C2.00642 36.89 2.04876 37.0211 2.13475 37.1221C2.22073 37.2231 2.34332 37.286 2.47555 37.2966C2.60778 37.3073 2.73882 37.2649 2.83984 37.179L6.375 34.1748C6.45515 34.1076 6.51222 34.0171 6.53819 33.9158C6.56416 33.8145 6.55773 33.7076 6.51978 33.6101C6.48184 33.5127 6.4143 33.4296 6.32667 33.3726C6.23903 33.3155 6.13572 33.2865 6.03125 33.2913Z" fill="#1188EE"/>
<path fill-rule="evenodd" clip-rule="evenodd" d="M6.74219 34.8811C6.6122 34.8851 6.48889 34.9395 6.39844 35.033L1.98047 39.5408C1.93319 39.5874 1.89567 39.643 1.87011 39.7043C1.84455 39.7657 1.83146 39.8315 1.83161 39.898C1.83175 39.9644 1.84512 40.0301 1.87094 40.0913C1.89676 40.1525 1.93452 40.208 1.982 40.2544C2.02948 40.3008 2.08574 40.3374 2.14749 40.3618C2.20924 40.3863 2.27524 40.3981 2.34164 40.3967C2.40805 40.3954 2.47352 40.3809 2.53425 40.354C2.59497 40.3271 2.64972 40.2883 2.69531 40.24L7.11328 35.7322C7.18365 35.6611 7.23108 35.5705 7.24945 35.4722C7.26782 35.3738 7.25628 35.2724 7.21632 35.1807C7.17637 35.089 7.10983 35.0115 7.0253 34.958C6.94078 34.9045 6.84216 34.878 6.74219 34.8811Z" fill="#1188EE"/>
<path fill-rule="evenodd" clip-rule="evenodd" d="M7.42577 37.0022C7.2976 37.0134 7.17868 37.0735 7.09374 37.1701L2.49608 42.2991C2.40753 42.398 2.3619 42.528 2.36923 42.6606C2.37657 42.7932 2.43626 42.9175 2.53519 43.0061C2.63412 43.0947 2.76417 43.1401 2.89675 43.1328C3.02934 43.1255 3.15359 43.0659 3.24218 42.967L7.83593 37.8381C7.90375 37.7639 7.94765 37.671 7.9619 37.5715C7.97615 37.472 7.96008 37.3705 7.91581 37.2803C7.87153 37.19 7.80109 37.1153 7.71368 37.0657C7.62627 37.0161 7.52593 36.9939 7.42577 37.0022Z" fill="#1188EE"/>
<path fill-rule="evenodd" clip-rule="evenodd" d="M8.1289 39.1232C7.99955 39.1365 7.88045 39.1996 7.79687 39.2992L3.46484 44.2485C3.41931 44.2976 3.38412 44.3552 3.36134 44.4181C3.33857 44.4811 3.32868 44.548 3.33226 44.6149C3.33584 44.6818 3.35282 44.7473 3.38219 44.8075C3.41156 44.8677 3.45272 44.9215 3.50323 44.9655C3.55375 45.0095 3.61258 45.0428 3.67624 45.0636C3.7399 45.0845 3.80709 45.0922 3.87383 45.0866C3.94056 45.0809 4.00548 45.0619 4.06473 45.0307C4.12398 44.9995 4.17635 44.9566 4.21874 44.9047L8.54687 39.9552C8.61402 39.8804 8.65707 39.7873 8.6704 39.6877C8.68374 39.588 8.66673 39.4867 8.62161 39.3969C8.57648 39.3071 8.50533 39.2328 8.41744 39.184C8.32955 39.1352 8.229 39.114 8.1289 39.1232Z" fill="#1188EE"/>
<path fill-rule="evenodd" clip-rule="evenodd" d="M8.9375 40.5373C8.86457 40.542 8.79354 40.5625 8.72943 40.5976C8.66532 40.6327 8.60967 40.6815 8.56641 40.7404L4.85547 45.6896C4.81597 45.7422 4.78721 45.802 4.77084 45.8657C4.75446 45.9294 4.75079 45.9956 4.76004 46.0607C4.76929 46.1258 4.79127 46.1884 4.82473 46.2451C4.85819 46.3017 4.90248 46.3513 4.95506 46.3908C5.00764 46.4303 5.06748 46.4589 5.13118 46.4753C5.19487 46.4917 5.26117 46.4955 5.32628 46.4863C5.39139 46.477 5.45404 46.455 5.51066 46.4216C5.56728 46.3881 5.61675 46.3438 5.65625 46.2912L9.36719 41.342C9.4261 41.2657 9.46172 41.1741 9.46977 41.0781C9.47782 40.982 9.45795 40.8857 9.41256 40.8007C9.36717 40.7157 9.29818 40.6455 9.2139 40.5988C9.12962 40.5521 9.03364 40.5307 8.9375 40.5373Z" fill="#1188EE"/>
<path fill-rule="evenodd" clip-rule="evenodd" d="M9.9062 42.5686C9.83362 42.5743 9.76315 42.5958 9.69973 42.6316C9.63631 42.6674 9.58146 42.7165 9.53901 42.7756L6.5312 46.842C6.49151 46.8948 6.46268 46.9551 6.44636 47.019C6.43004 47.083 6.42655 47.1495 6.43611 47.2148C6.44567 47.2802 6.46807 47.343 6.50204 47.3997C6.536 47.4563 6.58085 47.5057 6.63399 47.5449C6.68713 47.5841 6.74751 47.6124 6.81164 47.6282C6.87578 47.6439 6.9424 47.6469 7.00766 47.6367C7.07292 47.6266 7.13553 47.6036 7.19186 47.5691C7.2482 47.5346 7.29715 47.4893 7.33589 47.4358L10.3398 43.3694C10.3978 43.2928 10.4325 43.2012 10.4398 43.1055C10.4471 43.0097 10.4267 42.9138 10.381 42.8294C10.3352 42.7449 10.2661 42.6754 10.1819 42.6292C10.0977 42.5829 10.002 42.5619 9.9062 42.5686Z" fill="#1188EE"/>
<path fill-rule="evenodd" clip-rule="evenodd" d="M10.7929 44.5138C10.7031 44.5196 10.6165 44.5493 10.5422 44.6002C10.468 44.6511 10.4088 44.7212 10.3711 44.8029L9.22263 47.1896C9.16516 47.3092 9.15757 47.4467 9.20152 47.5719C9.24548 47.6972 9.33739 47.7998 9.45704 47.8573C9.57668 47.9148 9.71426 47.9225 9.83952 47.8786C9.96478 47.8346 10.0675 47.7428 10.125 47.6232L11.2734 45.2365C11.3128 45.1577 11.3308 45.07 11.3254 44.9821C11.32 44.8942 11.2915 44.8091 11.2427 44.7357C11.1939 44.6624 11.1267 44.6034 11.0477 44.5643C10.9687 44.5253 10.8808 44.5079 10.7929 44.5138Z" fill="#1188EE"/>
<path fill-rule="evenodd" clip-rule="evenodd" d="M7.41014 6.02163C7.28015 6.02567 7.15685 6.08005 7.06639 6.17349L2.00389 11.1735C1.95589 11.2194 1.91751 11.2743 1.89097 11.3351C1.86444 11.396 1.85029 11.4616 1.84935 11.528C1.84842 11.5944 1.8607 11.6602 1.88551 11.7218C1.91031 11.7834 1.94712 11.8394 1.9938 11.8866C2.04048 11.9338 2.0961 11.9712 2.1574 11.9967C2.21871 12.0222 2.28447 12.0353 2.35086 12.0351C2.41725 12.0349 2.48293 12.0216 2.54408 11.9958C2.60523 11.9699 2.66062 11.9319 2.70702 11.8844L7.76561 6.88442C7.83913 6.81497 7.88986 6.72501 7.91111 6.62612C7.93235 6.52724 7.92311 6.42424 7.88461 6.33071C7.8461 6.23719 7.78014 6.15746 7.69544 6.1022C7.61073 6.04693 7.51125 6.01919 7.41014 6.02163Z" fill="#1188EE"/>
<path fill-rule="evenodd" clip-rule="evenodd" d="M7.37496 8.52175C7.30246 8.5194 7.23032 8.53274 7.16354 8.56105C7.09676 8.58937 7.03694 8.63182 6.98824 8.68557L1.73824 14.3106C1.69334 14.3585 1.65833 14.4148 1.63521 14.4763C1.61209 14.5378 1.60131 14.6033 1.60348 14.669C1.60566 14.7346 1.62074 14.7993 1.64788 14.8592C1.67501 14.919 1.71367 14.973 1.76163 15.0178C1.8096 15.0627 1.86594 15.0975 1.92743 15.1206C1.98893 15.1437 2.05437 15.1545 2.12003 15.1524C2.18569 15.1502 2.25028 15.1351 2.3101 15.1079C2.36993 15.0808 2.42382 15.0421 2.46871 14.9942L7.71871 9.36916C7.78609 9.29955 7.8318 9.21207 7.85028 9.11696C7.86876 9.02186 7.85922 8.9233 7.8228 8.83352C7.78639 8.74373 7.72468 8.66647 7.64518 8.6111C7.56567 8.55574 7.47179 8.52476 7.37496 8.52175Z" fill="#1188EE"/>
<path fill-rule="evenodd" clip-rule="evenodd" d="M7.35936 11.3342C7.22914 11.3351 7.10442 11.3868 7.0117 11.4783L2.4492 15.7905C2.39603 15.8339 2.35236 15.888 2.32091 15.949C2.28946 16.01 2.2709 16.0768 2.2664 16.1453C2.26189 16.2137 2.27153 16.2823 2.29472 16.3469C2.3179 16.4115 2.35414 16.4708 2.40117 16.5208C2.4482 16.5707 2.50501 16.6104 2.56807 16.6375C2.63114 16.6645 2.6991 16.6783 2.76773 16.678C2.83636 16.6777 2.90419 16.6634 2.967 16.6357C3.0298 16.6081 3.08624 16.5678 3.13279 16.5173L7.69529 12.2046C7.77029 12.1368 7.82298 12.0478 7.8464 11.9495C7.86983 11.8511 7.8629 11.7481 7.82652 11.6538C7.79013 11.5595 7.72602 11.4783 7.64262 11.4211C7.55922 11.364 7.46046 11.3341 7.35936 11.3342Z" fill="#1188EE"/>
<path fill-rule="evenodd" clip-rule="evenodd" d="M33.4062 33.2913C33.2938 33.2965 33.1865 33.3395 33.1015 33.4133L29.5664 36.417C29.4653 36.503 29.4026 36.6256 29.392 36.7578C29.3814 36.89 29.4237 37.021 29.5097 37.1221C29.5957 37.2231 29.7183 37.286 29.8505 37.2966C29.9827 37.3073 30.1138 37.2649 30.2148 37.179L33.75 34.1748C33.8301 34.1076 33.8872 34.0171 33.9132 33.9158C33.9391 33.8145 33.9327 33.7076 33.8947 33.6101C33.8568 33.5127 33.7893 33.4296 33.7016 33.3726C33.614 33.3155 33.5107 33.2865 33.4062 33.2913Z" fill="#1188EE"/>
<path fill-rule="evenodd" clip-rule="evenodd" d="M34.1172 34.8811C33.9872 34.8851 33.8639 34.9395 33.7734 35.033L29.3555 39.5408C29.3082 39.5874 29.2707 39.643 29.2451 39.7043C29.2196 39.7657 29.2065 39.8315 29.2066 39.898C29.2067 39.9644 29.2201 40.0301 29.2459 40.0913C29.2718 40.1525 29.3095 40.208 29.357 40.2544C29.4045 40.3008 29.4607 40.3374 29.5225 40.3618C29.5842 40.3863 29.6502 40.3981 29.7166 40.3967C29.783 40.3954 29.8485 40.3809 29.9092 40.354C29.97 40.3271 30.0247 40.2883 30.0703 40.24L34.4883 35.7322C34.5586 35.6611 34.6061 35.5705 34.6244 35.4722C34.6428 35.3738 34.6313 35.2724 34.5913 35.1807C34.5514 35.089 34.4848 35.0115 34.4003 34.958C34.3158 34.9045 34.2172 34.878 34.1172 34.8811Z" fill="#1188EE"/>
<path fill-rule="evenodd" clip-rule="evenodd" d="M34.8008 37.0022C34.6726 37.0134 34.5537 37.0735 34.4687 37.1701L29.8711 42.2991C29.8272 42.348 29.7934 42.4052 29.7717 42.4673C29.7499 42.5293 29.7405 42.595 29.7442 42.6606C29.7515 42.7932 29.8112 42.9175 29.9101 43.0061C30.0091 43.0947 30.1391 43.1404 30.2717 43.133C30.4043 43.1257 30.5286 43.066 30.6172 42.967L35.2109 37.8381C35.2787 37.7639 35.3226 37.671 35.3369 37.5715C35.3511 37.472 35.3351 37.3705 35.2908 37.2803C35.2465 37.19 35.1761 37.1153 35.0887 37.0657C35.0013 37.0161 34.9009 36.9939 34.8008 37.0022Z" fill="#1188EE"/>
<path fill-rule="evenodd" clip-rule="evenodd" d="M35.5039 39.1232C35.3746 39.1365 35.2555 39.1996 35.1719 39.2992L30.8398 44.2485C30.7943 44.2976 30.7591 44.3552 30.7363 44.4181C30.7136 44.4811 30.7037 44.548 30.7073 44.6149C30.7108 44.6818 30.7278 44.7473 30.7572 44.8075C30.7866 44.8677 30.8277 44.9215 30.8782 44.9655C30.9287 45.0095 30.9876 45.0428 31.0512 45.0636C31.1149 45.0845 31.1821 45.0922 31.2488 45.0866C31.3156 45.0809 31.3805 45.0619 31.4397 45.0307C31.499 44.9995 31.5514 44.9566 31.5937 44.9047L35.9219 39.9552C35.989 39.8804 36.0321 39.7873 36.0454 39.6877C36.0587 39.588 36.0417 39.4867 35.9966 39.3969C35.9515 39.3071 35.8803 39.2328 35.7924 39.184C35.7046 39.1352 35.604 39.114 35.5039 39.1232Z" fill="#1188EE"/>
<path fill-rule="evenodd" clip-rule="evenodd" d="M36.3125 40.5373C36.2396 40.542 36.1685 40.5625 36.1044 40.5976C36.0403 40.6327 35.9847 40.6815 35.9414 40.7404L32.2305 45.6896C32.191 45.7422 32.1622 45.802 32.1458 45.8657C32.1295 45.9294 32.1258 45.9956 32.135 46.0607C32.1443 46.1258 32.1663 46.1884 32.1997 46.2451C32.2332 46.3017 32.2775 46.3513 32.3301 46.3908C32.3826 46.4303 32.4425 46.4589 32.5062 46.4753C32.5699 46.4917 32.6362 46.4955 32.7013 46.4863C32.7664 46.477 32.829 46.455 32.8857 46.4216C32.9423 46.3881 32.9917 46.3438 33.0313 46.2912L36.7422 41.342C36.8011 41.2657 36.8367 41.1741 36.8448 41.0781C36.8528 40.982 36.833 40.8857 36.7876 40.8007C36.7422 40.7157 36.6732 40.6455 36.5889 40.5988C36.5046 40.5521 36.4086 40.5307 36.3125 40.5373Z" fill="#1188EE"/>
<path fill-rule="evenodd" clip-rule="evenodd" d="M37.2812 42.5686C37.2087 42.5743 37.1382 42.5958 37.0748 42.6316C37.0114 42.6674 36.9565 42.7165 36.9141 42.7756L33.9062 46.842C33.8666 46.8948 33.8377 46.9551 33.8214 47.019C33.8051 47.083 33.8016 47.1495 33.8112 47.2148C33.8207 47.2802 33.8431 47.343 33.8771 47.3997C33.9111 47.4563 33.9559 47.5057 34.009 47.5449C34.0622 47.5841 34.1226 47.6124 34.1867 47.6282C34.2508 47.6439 34.3175 47.6469 34.3827 47.6367C34.448 47.6266 34.5106 47.6036 34.5669 47.5691C34.6232 47.5346 34.6722 47.4893 34.7109 47.4358L37.7148 43.3694C37.7728 43.2928 37.8076 43.2012 37.8149 43.1055C37.8222 43.0097 37.8017 42.9138 37.756 42.8294C37.7103 42.7449 37.6412 42.6754 37.557 42.6292C37.4728 42.5829 37.3771 42.5619 37.2812 42.5686Z" fill="#1188EE"/>
<path fill-rule="evenodd" clip-rule="evenodd" d="M38.1679 44.5138C38.0781 44.5196 37.9915 44.5493 37.9172 44.6002C37.8429 44.6511 37.7838 44.7212 37.746 44.8029L36.5976 47.1896C36.5691 47.2488 36.5526 47.3132 36.549 47.3788C36.5454 47.4444 36.5547 47.5101 36.5764 47.5722C36.6204 47.6974 36.7123 47.8001 36.832 47.8576C36.9516 47.9151 37.0892 47.9225 37.2145 47.8786C37.3398 47.8346 37.4424 47.7428 37.4999 47.6232L38.6484 45.2365C38.6878 45.1577 38.7057 45.07 38.7004 44.9821C38.695 44.8942 38.6664 44.8091 38.6177 44.7357C38.5689 44.6624 38.5016 44.6034 38.4227 44.5643C38.3437 44.5253 38.2558 44.5079 38.1679 44.5138Z" fill="#1188EE"/>
</svg>
