<svg width="152" height="38" viewBox="0 0 152 38" fill="none" xmlns="http://www.w3.org/2000/svg">
<path d="M41.2744 33.964C38.7544 33.964 36.8224 33.532 35.4784 32.668C34.1584 31.78 33.4984 30.484 33.4984 28.78C33.4984 27.916 33.7864 27.208 34.3624 26.656C34.9624 26.08 35.7304 25.792 36.6664 25.792C37.2184 25.816 37.6384 25.96 37.9264 26.224C38.2144 26.464 38.3584 26.692 38.3584 26.908C38.3584 26.932 38.2384 27.016 37.9984 27.16C37.7584 27.304 37.5424 27.52 37.3504 27.808C37.1584 28.096 37.0624 28.492 37.0624 28.996C37.0624 30.124 37.3984 31 38.0704 31.624C38.7664 32.224 39.8344 32.524 41.2744 32.524C42.2584 32.524 43.1224 32.332 43.8664 31.948C44.6104 31.564 45.1744 31.06 45.5584 30.436C45.9664 29.788 46.1704 29.116 46.1704 28.42C46.1704 27.556 45.9184 26.812 45.4144 26.188C44.9344 25.564 44.3344 25.048 43.6144 24.64C42.8944 24.208 41.9104 23.716 40.6624 23.164C39.2224 22.516 38.0584 21.928 37.1704 21.4C36.2824 20.872 35.5264 20.176 34.9024 19.312C34.2784 18.424 33.9664 17.332 33.9664 16.036C33.9664 13.948 34.6744 12.388 36.0904 11.356C37.5304 10.324 39.4144 9.808 41.7424 9.808C43.5664 9.808 45.1504 10.192 46.4944 10.96C47.8624 11.728 48.5464 12.856 48.5464 14.344C48.5464 15.208 48.2464 15.928 47.6464 16.504C47.0704 17.056 46.3144 17.332 45.3784 17.332C44.8264 17.308 44.4064 17.176 44.1184 16.936C43.8304 16.672 43.6864 16.432 43.6864 16.216C43.6864 16.192 43.8424 16.108 44.1544 15.964C44.4904 15.82 44.7784 15.604 45.0184 15.316C45.2824 15.028 45.4144 14.632 45.4144 14.128C45.4144 13.24 45.0664 12.544 44.3704 12.04C43.6984 11.536 42.8344 11.284 41.7784 11.284C40.3144 11.284 39.1984 11.632 38.4304 12.328C37.6864 13 37.3144 13.84 37.3144 14.848C37.3144 15.688 37.5424 16.396 37.9984 16.972C38.4544 17.524 39.1864 18.076 40.1944 18.628C41.0104 19.06 41.8984 19.492 42.8584 19.924C44.3944 20.62 45.6064 21.256 46.4944 21.832C47.4064 22.408 48.1624 23.164 48.7624 24.1C49.3864 25.036 49.6984 26.2 49.6984 27.592C49.6984 28.792 49.3144 29.884 48.5464 30.868C47.8024 31.828 46.7824 32.584 45.4864 33.136C44.2144 33.688 42.8104 33.964 41.2744 33.964Z" fill="white"/>
<path d="M59.4994 33.676C57.8674 33.676 56.5714 33.184 55.6114 32.2C54.6514 31.216 54.1714 29.92 54.1714 28.312V21.652C54.1714 21.028 54.1474 20.572 54.0994 20.284C54.0754 19.996 53.9314 19.744 53.6674 19.528C53.4034 19.312 52.9594 19.204 52.3354 19.204C52.0474 19.204 51.8314 19.168 51.6874 19.096C51.5434 19 51.4714 18.796 51.4714 18.484C51.4714 18.34 51.5194 18.208 51.6154 18.088C51.7114 17.944 51.8554 17.86 52.0474 17.836C53.5594 17.62 54.8554 17.308 55.9354 16.9C56.2714 16.78 56.5474 16.708 56.7634 16.684H56.8714C57.2554 16.684 57.4474 16.912 57.4474 17.368V28.276C57.4474 29.38 57.7954 30.232 58.4914 30.832C59.1874 31.408 59.9914 31.696 60.9034 31.696C62.0314 31.696 62.9914 31.42 63.7834 30.868C64.5754 30.316 65.1034 29.764 65.3674 29.212V21.652C65.3674 21.028 65.3434 20.572 65.2954 20.284C65.2714 19.996 65.1274 19.744 64.8634 19.528C64.5994 19.312 64.1554 19.204 63.5314 19.204C63.2434 19.204 63.0274 19.168 62.8834 19.096C62.7394 19 62.6674 18.796 62.6674 18.484C62.6674 18.34 62.7154 18.208 62.8114 18.088C62.9074 17.944 63.0514 17.86 63.2434 17.836C64.7554 17.62 66.0514 17.308 67.1314 16.9C67.4674 16.78 67.7434 16.708 67.9594 16.684H68.0674C68.4514 16.684 68.6434 16.912 68.6434 17.368V29.824C68.6434 31.24 69.5914 31.948 71.4874 31.948C71.8954 31.948 72.0994 32.176 72.0994 32.632C72.0994 32.968 71.8954 33.172 71.4874 33.244L65.6914 33.64C65.5234 33.64 65.4274 33.58 65.4034 33.46C65.3794 33.364 65.3674 33.184 65.3674 32.92V30.904H65.2954C64.5994 31.552 64.0354 32.056 63.6034 32.416C63.1714 32.752 62.6074 33.04 61.9114 33.28C61.2394 33.544 60.4354 33.676 59.4994 33.676Z" fill="white"/>
<path d="M74.0687 33.352C73.9007 33.352 73.7567 33.28 73.6367 33.136C73.5407 32.992 73.4927 32.824 73.4927 32.632C73.5167 32.32 73.5887 32.14 73.7087 32.092C73.8287 32.02 74.0447 31.984 74.3567 31.984C74.9807 31.984 75.4247 31.876 75.6887 31.66C75.9527 31.444 76.0967 31.192 76.1207 30.904C76.1687 30.616 76.1927 30.16 76.1927 29.536V21.292C76.1927 20.668 76.1687 20.212 76.1207 19.924C76.0967 19.636 75.9527 19.384 75.6887 19.168C75.4247 18.952 74.9807 18.844 74.3567 18.844C74.0687 18.844 73.8527 18.808 73.7087 18.736C73.5647 18.64 73.4927 18.436 73.4927 18.124C73.4927 17.98 73.5407 17.848 73.6367 17.728C73.7327 17.584 73.8767 17.5 74.0687 17.476C75.6287 17.236 76.9127 16.924 77.9207 16.54C78.3287 16.42 78.6047 16.348 78.7487 16.324H78.8567C79.2407 16.324 79.4327 16.552 79.4327 17.008V19.24H79.5407C80.3807 18.4 81.2327 17.74 82.0967 17.26C82.9607 16.756 83.7407 16.504 84.4367 16.504C85.2287 16.504 85.8527 16.804 86.3087 17.404C86.7887 17.98 87.0287 18.652 87.0287 19.42C87.0287 20.092 86.8247 20.692 86.4167 21.22C86.0087 21.748 85.4447 22.012 84.7247 22.012C84.3887 22.012 84.0887 21.94 83.8247 21.796C83.5847 21.652 83.4527 21.532 83.4287 21.436C83.4527 21.388 83.5727 21.244 83.7887 21.004C84.0047 20.74 84.1127 20.44 84.1127 20.104C84.1127 19.672 83.9927 19.324 83.7527 19.06C83.5367 18.796 83.2367 18.664 82.8527 18.664C82.4447 18.664 81.9287 18.868 81.3047 19.276C80.6807 19.66 80.0687 20.152 79.4687 20.752V29.536C79.4687 30.16 79.4927 30.616 79.5407 30.904C79.5887 31.192 79.7447 31.444 80.0087 31.66C80.2727 31.876 80.7167 31.984 81.3407 31.984H81.5567C81.7487 31.984 81.8927 32.02 81.9887 32.092C82.0847 32.164 82.1447 32.344 82.1687 32.632C82.1687 32.824 82.1207 32.992 82.0247 33.136C81.9287 33.28 81.7847 33.352 81.5927 33.352C80.2007 33.28 78.9407 33.244 77.8127 33.244C76.7327 33.244 75.4847 33.28 74.0687 33.352Z" fill="white"/>
<path d="M129.981 33.676C128.349 33.676 126.897 33.292 125.625 32.524C124.353 31.732 123.357 30.7 122.637 29.428C121.941 28.132 121.593 26.764 121.593 25.324C121.593 23.524 122.013 21.964 122.853 20.644C123.693 19.3 124.761 18.28 126.057 17.584C127.353 16.864 128.661 16.504 129.981 16.504C131.613 16.504 133.065 16.9 134.337 17.692C135.609 18.46 136.593 19.492 137.289 20.788C138.009 22.06 138.369 23.416 138.369 24.856C138.369 26.656 137.937 28.228 137.073 29.572C136.233 30.892 135.165 31.912 133.869 32.632C132.573 33.328 131.277 33.676 129.981 33.676ZM129.981 32.344C131.613 32.344 132.801 31.648 133.545 30.256C134.313 28.864 134.697 27.064 134.697 24.856C134.697 22.792 134.301 21.112 133.509 19.816C132.741 18.496 131.565 17.836 129.981 17.836C128.325 17.836 127.125 18.52 126.381 19.888C125.637 21.256 125.265 23.044 125.265 25.252C125.265 27.316 125.649 29.02 126.417 30.364C127.185 31.684 128.373 32.344 129.981 32.344Z" fill="white"/>
<path d="M147.44 33.856C146.264 33.856 145.256 33.424 144.416 32.56C143.576 31.696 143.156 30.46 143.156 28.852V18.268L141.068 18.34C140.924 18.34 140.804 18.28 140.708 18.16C140.612 18.016 140.564 17.86 140.564 17.692C140.564 17.476 140.6 17.296 140.672 17.152C140.768 16.984 140.9 16.888 141.068 16.864C141.908 16.696 142.556 16.432 143.012 16.072C143.492 15.688 143.84 15.28 144.056 14.848C144.272 14.392 144.536 13.708 144.848 12.796C144.968 12.484 145.232 12.328 145.64 12.328C145.808 12.328 145.976 12.376 146.144 12.472C146.312 12.544 146.396 12.664 146.396 12.832L146.144 16.936L150.356 16.684H150.428C150.74 16.684 150.896 16.912 150.896 17.368C150.896 17.632 150.848 17.884 150.752 18.124C150.68 18.34 150.584 18.448 150.464 18.448L146.432 18.34V29.284C146.432 30.076 146.588 30.736 146.9 31.264C147.236 31.792 147.776 32.056 148.52 32.056C149.264 32.056 149.924 31.924 150.5 31.66C150.812 31.54 151.004 31.48 151.076 31.48C151.244 31.48 151.376 31.552 151.472 31.696C151.568 31.816 151.664 31.984 151.76 32.2C151.784 32.248 151.796 32.308 151.796 32.38C151.796 32.476 151.724 32.584 151.58 32.704C150.884 33.16 150.224 33.46 149.6 33.604C149 33.772 148.28 33.856 147.44 33.856Z" fill="white"/>
<path d="M89.2536 33.136C89.3496 33.28 89.4936 33.352 89.6856 33.352C91.0536 33.28 92.3016 33.244 93.4296 33.244C95.0376 33.244 96.5376 33.28 97.9296 33.352C98.0976 33.352 98.2296 33.28 98.3256 33.136C98.4216 32.992 98.4696 32.824 98.4696 32.632C98.4456 32.344 98.3856 32.164 98.2896 32.092C98.2176 32.02 98.0736 31.984 97.8576 31.984H97.6416C96.8496 31.984 96.2856 31.924 95.9496 31.804C95.6136 31.684 95.3856 31.468 95.2656 31.156C95.1456 30.82 95.0856 30.28 95.0856 29.536V18.34H98.9016C99.0696 18.34 99.2136 18.268 99.3336 18.124C99.4536 17.98 99.5136 17.812 99.5136 17.62C99.4896 17.332 99.4176 17.152 99.2976 17.08C99.2016 16.984 99.0456 16.936 98.8296 16.936H95.0856V14.776C95.0856 13.624 95.1336 12.616 95.2296 11.752C95.3256 10.864 95.6016 10.048 96.0576 9.304C96.5136 8.56 97.2216 8.188 98.1816 8.188C98.292 8.188 98.3988 8.1945 98.5019 8.2075C98.4881 7.80132 98.5155 7.39272 98.581 7.00177C98.5321 7.00059 98.483 7 98.4336 7C96.3216 7.048 94.6776 7.852 93.5016 9.412C92.3496 10.948 91.7736 12.952 91.7736 15.424V16.936H89.6136C89.3016 16.936 89.0856 16.972 88.9656 17.044C88.8456 17.092 88.7736 17.284 88.7496 17.62C88.7496 17.812 88.7976 17.98 88.8936 18.124C89.0136 18.268 89.1696 18.34 89.3616 18.34H91.7736V29.536C91.7736 30.184 91.7496 30.652 91.7016 30.94C91.6776 31.204 91.5336 31.444 91.2696 31.66C91.0056 31.876 90.5616 31.984 89.9376 31.984C89.6256 31.984 89.4096 32.02 89.2896 32.092C89.1936 32.14 89.1336 32.32 89.1096 32.632C89.1096 32.824 89.1576 32.992 89.2536 33.136Z" fill="white"/>
<path fill-rule="evenodd" clip-rule="evenodd" d="M108.498 8C108.498 10.2091 106.707 12 104.498 12C102.289 12 100.498 10.2091 100.498 8C100.498 5.79086 102.289 4 104.498 4C106.707 4 108.498 5.79086 108.498 8ZM104.498 10C105.603 10 106.498 9.10457 106.498 8C106.498 6.89543 105.603 6 104.498 6C103.394 6 102.498 6.89543 102.498 8C102.498 9.10457 103.394 10 104.498 10Z" fill="white"/>
<path fill-rule="evenodd" clip-rule="evenodd" d="M102.745 13.7399V33.028C102.745 33.244 102.805 33.412 102.925 33.532C103.045 33.676 103.213 33.748 103.429 33.748C103.645 33.748 103.825 33.652 103.969 33.46C104.113 33.292 104.245 33.04 104.365 32.704C104.485 32.368 104.593 32.104 104.689 31.912H104.869C106.429 33.088 108.277 33.676 110.413 33.676C111.853 33.676 113.209 33.292 114.481 32.524C115.753 31.756 116.761 30.712 117.505 29.392C118.273 28.048 118.657 26.572 118.657 24.964C118.657 23.332 118.321 21.88 117.649 20.608C117.001 19.312 116.101 18.304 114.949 17.584C113.797 16.864 112.513 16.504 111.097 16.504C110.233 16.504 109.357 16.684 108.469 17.044C107.605 17.38 106.825 17.896 106.129 18.592H106.021V13.805C104.951 14.0852 103.804 14.0628 102.745 13.7399ZM113.617 30.472C112.729 31.792 111.553 32.452 110.089 32.452C109.321 32.452 108.637 32.284 108.037 31.948C107.461 31.612 106.993 31.216 106.633 30.76C106.297 30.28 106.093 29.848 106.021 29.464V19.96C107.053 18.856 108.325 18.304 109.837 18.304C111.541 18.304 112.825 18.976 113.689 20.32C114.553 21.64 114.985 23.236 114.985 25.108C114.985 27.34 114.529 29.128 113.617 30.472Z" fill="white"/>
<path fill-rule="evenodd" clip-rule="evenodd" d="M9.63967 0.7794C10.1612 0.406867 10.8618 0.406867 11.3834 0.7794C17.8802 5.42002 20.8255 10.9833 21.0111 18.9651C21.0968 22.7765 20.7299 26.2663 19.6133 29.281C18.4681 32.2975 16.4315 35.0845 13.4332 37.438C13.0549 37.7326 12.5585 37.8286 12.0976 37.6963C11.1793 37.4327 11.023 36.3442 10.5115 35.6657C9.99974 36.3446 9.84439 37.4325 8.9254 37.6963C8.46452 37.8286 7.96817 37.7326 7.58987 37.438C4.5915 35.0845 2.55499 32.2975 1.40971 29.281C0.293102 26.2663 -0.0737632 22.7765 0.0119281 18.9651C0.197553 10.9833 3.1428 5.42002 9.63967 0.7794ZM12.9984 34C14.8746 32.275 16.0052 30.3926 16.8041 28.2283C17.8092 25.5815 18.0991 22.6583 18.0119 19.0349C17.8672 12.811 16.4108 8.76064 11.9984 5V16C13.7236 16.444 14.4984 18.1362 14.4984 20C14.4984 21.8638 13.7236 23.556 11.9984 24V33C11.9984 33 12.8001 33.7391 12.9984 34ZM7.99835 34C6.12206 32.275 5.01787 30.3926 4.21893 28.2283C3.21389 25.5815 2.92391 22.6583 3.01112 19.0349C3.15557 12.8234 4.60442 8.75563 8.99835 5V16C7.27312 16.444 6.49835 18.1362 6.49835 20C6.49835 21.8638 7.27312 23.556 8.99835 24V33C8.99835 33 8.18923 33.7487 7.99835 34ZM10.4984 18C9.39378 18 8.49835 18.8954 8.49835 20C8.49835 21.1046 9.39378 22 10.4984 22C11.6029 22 12.4984 21.1046 12.4984 20C12.4984 18.8954 11.6029 18 10.4984 18Z" fill="white"/>
</svg>
